<mxfile host="app.diagrams.net" agent="Mozilla/5.0 (Windows NT 10.0; Win64; x64) AppleWebKit/537.36 (KHTML, like Gecko) Chrome/136.0.0.0 Safari/537.36" version="27.0.5" pages="2">
  <diagram name="Page-1" id="KtI8qqO0vV0Lk9qDOTK7">
    <mxGraphModel dx="2216" dy="3098" grid="1" gridSize="10" guides="1" tooltips="1" connect="1" arrows="1" fold="1" page="1" pageScale="1" pageWidth="827" pageHeight="1169" math="0" shadow="0">
      <root>
        <mxCell id="0" />
        <mxCell id="1" parent="0" />
        <mxCell id="ZvtriaTq_UTasGp2v6HC-1" value="" style="endArrow=block;endSize=16;endFill=0;html=1;rounded=0;labelBackgroundColor=none;fontColor=default;exitX=0.5;exitY=0;exitDx=0;exitDy=0;" edge="1" parent="1" source="ZvtriaTq_UTasGp2v6HC-92">
          <mxGeometry width="160" relative="1" as="geometry">
            <mxPoint x="170" y="-890" as="sourcePoint" />
            <mxPoint x="320" y="-970" as="targetPoint" />
          </mxGeometry>
        </mxCell>
        <mxCell id="ZvtriaTq_UTasGp2v6HC-2" value="" style="endArrow=block;endSize=16;endFill=0;html=1;rounded=0;entryX=0.5;entryY=1;entryDx=0;entryDy=0;labelBackgroundColor=none;fontColor=default;exitX=0.5;exitY=0;exitDx=0;exitDy=0;" edge="1" parent="1" source="ZvtriaTq_UTasGp2v6HC-84">
          <mxGeometry width="160" relative="1" as="geometry">
            <mxPoint x="390" y="-880" as="sourcePoint" />
            <mxPoint x="390" y="-968" as="targetPoint" />
          </mxGeometry>
        </mxCell>
        <mxCell id="ZvtriaTq_UTasGp2v6HC-3" value="" style="endArrow=block;endSize=16;endFill=0;html=1;rounded=0;entryX=1;entryY=1;entryDx=0;entryDy=0;labelBackgroundColor=none;fontColor=default;" edge="1" parent="1" target="ZvtriaTq_UTasGp2v6HC-72">
          <mxGeometry width="160" relative="1" as="geometry">
            <mxPoint x="460" y="-750" as="sourcePoint" />
            <mxPoint x="460" y="-968" as="targetPoint" />
          </mxGeometry>
        </mxCell>
        <mxCell id="ZvtriaTq_UTasGp2v6HC-4" value="" style="endArrow=block;endSize=16;endFill=0;html=1;rounded=0;exitX=0.5;exitY=0;exitDx=0;exitDy=0;entryX=1;entryY=0.5;entryDx=0;entryDy=0;labelBackgroundColor=none;fontColor=default;" edge="1" parent="1" source="ZvtriaTq_UTasGp2v6HC-79">
          <mxGeometry width="160" relative="1" as="geometry">
            <mxPoint x="290" y="-820" as="sourcePoint" />
            <mxPoint x="460" y="-994" as="targetPoint" />
          </mxGeometry>
        </mxCell>
        <mxCell id="ZvtriaTq_UTasGp2v6HC-5" value="button" style="swimlane;fontStyle=0;childLayout=stackLayout;horizontal=1;startSize=26;fillColor=none;horizontalStack=0;resizeParent=1;resizeParentMax=0;resizeLast=0;collapsible=1;marginBottom=0;whiteSpace=wrap;html=1;labelBackgroundColor=none;" vertex="1" parent="1">
          <mxGeometry x="1250" y="-870" width="140" height="52" as="geometry" />
        </mxCell>
        <mxCell id="ZvtriaTq_UTasGp2v6HC-6" value="Save" style="swimlane;fontStyle=0;childLayout=stackLayout;horizontal=1;startSize=26;fillColor=none;horizontalStack=0;resizeParent=1;resizeParentMax=0;resizeLast=0;collapsible=1;marginBottom=0;whiteSpace=wrap;html=1;labelBackgroundColor=none;" vertex="1" parent="1">
          <mxGeometry x="1020" y="-1050" width="140" height="52" as="geometry" />
        </mxCell>
        <mxCell id="ZvtriaTq_UTasGp2v6HC-7" value="" style="endArrow=block;endSize=16;endFill=0;html=1;rounded=0;entryX=0;entryY=0;entryDx=0;entryDy=0;labelBackgroundColor=none;fontColor=default;exitX=1;exitY=0.5;exitDx=0;exitDy=0;" edge="1" parent="1" source="ZvtriaTq_UTasGp2v6HC-68">
          <mxGeometry width="160" relative="1" as="geometry">
            <mxPoint x="1170" y="-1034" as="sourcePoint" />
            <mxPoint x="1249.9999999999995" y="-870" as="targetPoint" />
          </mxGeometry>
        </mxCell>
        <mxCell id="ZvtriaTq_UTasGp2v6HC-8" value="" style="endArrow=block;endSize=16;endFill=0;html=1;rounded=0;exitX=1;exitY=0.5;exitDx=0;exitDy=0;entryX=0;entryY=0.25;entryDx=0;entryDy=0;labelBackgroundColor=none;fontColor=default;" edge="1" parent="1" source="ZvtriaTq_UTasGp2v6HC-6">
          <mxGeometry width="160" relative="1" as="geometry">
            <mxPoint x="1310" y="-710" as="sourcePoint" />
            <mxPoint x="1249.9999999999995" y="-857" as="targetPoint" />
          </mxGeometry>
        </mxCell>
        <mxCell id="ZvtriaTq_UTasGp2v6HC-9" value="" style="endArrow=block;endSize=16;endFill=0;html=1;rounded=0;entryX=0;entryY=1;entryDx=0;entryDy=0;labelBackgroundColor=none;fontColor=default;exitX=1;exitY=0.5;exitDx=0;exitDy=0;" edge="1" parent="1" source="ZvtriaTq_UTasGp2v6HC-86">
          <mxGeometry width="160" relative="1" as="geometry">
            <mxPoint x="1170" y="-754" as="sourcePoint" />
            <mxPoint x="1249.9999999999995" y="-818" as="targetPoint" />
          </mxGeometry>
        </mxCell>
        <mxCell id="ZvtriaTq_UTasGp2v6HC-10" value="" style="endArrow=block;endSize=16;endFill=0;html=1;rounded=0;entryX=0;entryY=0.75;entryDx=0;entryDy=0;labelBackgroundColor=none;fontColor=default;exitX=1;exitY=0.5;exitDx=0;exitDy=0;" edge="1" parent="1" source="ZvtriaTq_UTasGp2v6HC-96">
          <mxGeometry width="160" relative="1" as="geometry">
            <mxPoint x="1180" y="-840" as="sourcePoint" />
            <mxPoint x="1249.9999999999995" y="-831" as="targetPoint" />
          </mxGeometry>
        </mxCell>
        <mxCell id="ZvtriaTq_UTasGp2v6HC-11" value="" style="endArrow=block;endSize=16;endFill=0;html=1;rounded=0;entryX=0;entryY=0.5;entryDx=0;entryDy=0;labelBackgroundColor=none;fontColor=default;exitX=1;exitY=0.5;exitDx=0;exitDy=0;" edge="1" parent="1" source="ZvtriaTq_UTasGp2v6HC-95">
          <mxGeometry width="160" relative="1" as="geometry">
            <mxPoint x="1180" y="-890" as="sourcePoint" />
            <mxPoint x="1249.9999999999995" y="-844" as="targetPoint" />
          </mxGeometry>
        </mxCell>
        <mxCell id="ZvtriaTq_UTasGp2v6HC-12" value="" style="endArrow=diamondThin;endFill=1;endSize=24;html=1;rounded=0;labelBackgroundColor=none;fontColor=default;exitX=0;exitY=0.5;exitDx=0;exitDy=0;" edge="1" parent="1" source="ZvtriaTq_UTasGp2v6HC-68" target="ZvtriaTq_UTasGp2v6HC-79">
          <mxGeometry width="160" relative="1" as="geometry">
            <mxPoint x="1010" y="-1047" as="sourcePoint" />
            <mxPoint x="670" y="-870" as="targetPoint" />
          </mxGeometry>
        </mxCell>
        <mxCell id="ZvtriaTq_UTasGp2v6HC-13" value="" style="endArrow=diamondThin;endFill=1;endSize=24;html=1;rounded=0;exitX=0;exitY=0.5;exitDx=0;exitDy=0;labelBackgroundColor=none;fontColor=default;" edge="1" parent="1" source="ZvtriaTq_UTasGp2v6HC-6" target="ZvtriaTq_UTasGp2v6HC-79">
          <mxGeometry width="160" relative="1" as="geometry">
            <mxPoint x="1020" y="-980" as="sourcePoint" />
            <mxPoint x="670" y="-860" as="targetPoint" />
          </mxGeometry>
        </mxCell>
        <mxCell id="ZvtriaTq_UTasGp2v6HC-14" value="" style="endArrow=diamondThin;endFill=1;endSize=24;html=1;rounded=0;labelBackgroundColor=none;fontColor=default;exitX=0;exitY=0.5;exitDx=0;exitDy=0;" edge="1" parent="1" source="ZvtriaTq_UTasGp2v6HC-96" target="ZvtriaTq_UTasGp2v6HC-79">
          <mxGeometry width="160" relative="1" as="geometry">
            <mxPoint x="1000" y="-840" as="sourcePoint" />
            <mxPoint x="680" y="-830" as="targetPoint" />
          </mxGeometry>
        </mxCell>
        <mxCell id="ZvtriaTq_UTasGp2v6HC-15" value="" style="endArrow=diamondThin;endFill=1;endSize=24;html=1;rounded=0;labelBackgroundColor=none;fontColor=default;exitX=0;exitY=0.5;exitDx=0;exitDy=0;" edge="1" parent="1" source="ZvtriaTq_UTasGp2v6HC-86" target="ZvtriaTq_UTasGp2v6HC-79">
          <mxGeometry width="160" relative="1" as="geometry">
            <mxPoint x="1000" y="-750" as="sourcePoint" />
            <mxPoint x="690" y="-810" as="targetPoint" />
          </mxGeometry>
        </mxCell>
        <mxCell id="ZvtriaTq_UTasGp2v6HC-16" value="" style="endArrow=diamondThin;endFill=1;endSize=24;html=1;rounded=0;labelBackgroundColor=none;fontColor=default;exitX=0.569;exitY=1.006;exitDx=0;exitDy=0;exitPerimeter=0;entryX=0.75;entryY=1;entryDx=0;entryDy=0;" edge="1" parent="1" source="ZvtriaTq_UTasGp2v6HC-79" target="ZvtriaTq_UTasGp2v6HC-92">
          <mxGeometry width="160" relative="1" as="geometry">
            <mxPoint x="600" y="-800" as="sourcePoint" />
            <mxPoint x="205" y="-790" as="targetPoint" />
            <Array as="points">
              <mxPoint x="600" y="-760" />
              <mxPoint x="205" y="-760" />
            </Array>
          </mxGeometry>
        </mxCell>
        <mxCell id="ZvtriaTq_UTasGp2v6HC-17" value="" style="endArrow=diamondThin;endFill=1;endSize=24;html=1;rounded=0;labelBackgroundColor=none;fontColor=default;entryX=0.5;entryY=1;entryDx=0;entryDy=0;" edge="1" parent="1" target="ZvtriaTq_UTasGp2v6HC-92">
          <mxGeometry width="160" relative="1" as="geometry">
            <mxPoint x="440" y="-630" as="sourcePoint" />
            <mxPoint x="170" y="-790" as="targetPoint" />
            <Array as="points">
              <mxPoint x="170" y="-630" />
              <mxPoint x="170" y="-740" />
            </Array>
          </mxGeometry>
        </mxCell>
        <mxCell id="ZvtriaTq_UTasGp2v6HC-18" value="" style="endArrow=diamondThin;endFill=1;endSize=24;html=1;rounded=0;labelBackgroundColor=none;fontColor=default;exitX=0.5;exitY=1;exitDx=0;exitDy=0;entryX=1;entryY=1;entryDx=0;entryDy=0;" edge="1" parent="1" source="ZvtriaTq_UTasGp2v6HC-84" target="ZvtriaTq_UTasGp2v6HC-92">
          <mxGeometry width="160" relative="1" as="geometry">
            <mxPoint x="390" y="-810" as="sourcePoint" />
            <mxPoint x="240" y="-810" as="targetPoint" />
            <Array as="points">
              <mxPoint x="380" y="-780" />
              <mxPoint x="240" y="-780" />
            </Array>
          </mxGeometry>
        </mxCell>
        <mxCell id="ZvtriaTq_UTasGp2v6HC-19" value="Blockpanel" style="swimlane;fontStyle=0;childLayout=stackLayout;horizontal=1;startSize=26;fillColor=none;horizontalStack=0;resizeParent=1;resizeParentMax=0;resizeLast=0;collapsible=1;marginBottom=0;whiteSpace=wrap;html=1;labelBackgroundColor=none;" vertex="1" parent="1">
          <mxGeometry x="-160" y="-870" width="140" height="52" as="geometry" />
        </mxCell>
        <mxCell id="ZvtriaTq_UTasGp2v6HC-20" value="" style="endArrow=block;endSize=16;endFill=0;html=1;rounded=0;exitX=0.5;exitY=0;exitDx=0;exitDy=0;entryX=0;entryY=0.75;entryDx=0;entryDy=0;labelBackgroundColor=none;fontColor=default;" edge="1" parent="1" source="ZvtriaTq_UTasGp2v6HC-19" target="ZvtriaTq_UTasGp2v6HC-72">
          <mxGeometry width="160" relative="1" as="geometry">
            <mxPoint x="20" y="-860" as="sourcePoint" />
            <mxPoint x="320" y="-1007" as="targetPoint" />
          </mxGeometry>
        </mxCell>
        <mxCell id="ZvtriaTq_UTasGp2v6HC-21" value="" style="endArrow=diamondThin;endFill=1;endSize=24;html=1;rounded=0;exitX=1;exitY=1;exitDx=0;exitDy=0;labelBackgroundColor=none;fontColor=default;entryX=0;entryY=1;entryDx=0;entryDy=0;" edge="1" parent="1" source="ZvtriaTq_UTasGp2v6HC-19" target="ZvtriaTq_UTasGp2v6HC-92">
          <mxGeometry width="160" relative="1" as="geometry">
            <mxPoint x="-250" y="-770" as="sourcePoint" />
            <mxPoint x="100" y="-800" as="targetPoint" />
            <Array as="points">
              <mxPoint x="-20" y="-740" />
              <mxPoint x="100" y="-740" />
            </Array>
          </mxGeometry>
        </mxCell>
        <mxCell id="ZvtriaTq_UTasGp2v6HC-22" value="Blockbutton" style="swimlane;fontStyle=0;childLayout=stackLayout;horizontal=1;startSize=26;fillColor=none;horizontalStack=0;resizeParent=1;resizeParentMax=0;resizeLast=0;collapsible=1;marginBottom=0;whiteSpace=wrap;html=1;labelBackgroundColor=none;" vertex="1" parent="1">
          <mxGeometry x="243" y="-610" width="140" height="52" as="geometry" />
        </mxCell>
        <mxCell id="ZvtriaTq_UTasGp2v6HC-23" value="" style="endArrow=diamondThin;endFill=0;endSize=24;html=1;rounded=0;entryX=0.128;entryY=1.003;entryDx=0;entryDy=0;entryPerimeter=0;" edge="1" parent="1" target="ZvtriaTq_UTasGp2v6HC-71">
          <mxGeometry width="160" relative="1" as="geometry">
            <mxPoint x="250" y="-490" as="sourcePoint" />
            <mxPoint x="425" y="-640" as="targetPoint" />
            <Array as="points">
              <mxPoint x="425" y="-490" />
            </Array>
          </mxGeometry>
        </mxCell>
        <mxCell id="ZvtriaTq_UTasGp2v6HC-24" value="EndBlock" style="swimlane;fontStyle=0;childLayout=stackLayout;horizontal=1;startSize=26;fillColor=none;horizontalStack=0;resizeParent=1;resizeParentMax=0;resizeLast=0;collapsible=1;marginBottom=0;whiteSpace=wrap;html=1;labelBackgroundColor=none;" vertex="1" parent="1">
          <mxGeometry x="-80" y="-180" width="140" height="52" as="geometry" />
        </mxCell>
        <mxCell id="ZvtriaTq_UTasGp2v6HC-25" value="StartBlock" style="swimlane;fontStyle=0;childLayout=stackLayout;horizontal=1;startSize=26;fillColor=none;horizontalStack=0;resizeParent=1;resizeParentMax=0;resizeLast=0;collapsible=1;marginBottom=0;whiteSpace=wrap;html=1;labelBackgroundColor=none;" vertex="1" parent="1">
          <mxGeometry x="-170" y="-260" width="140" height="52" as="geometry" />
        </mxCell>
        <mxCell id="ZvtriaTq_UTasGp2v6HC-26" value="" style="endArrow=block;endSize=16;endFill=0;html=1;rounded=0;labelBackgroundColor=none;fontColor=default;exitX=0.309;exitY=0.026;exitDx=0;exitDy=0;exitPerimeter=0;" edge="1" parent="1" source="ZvtriaTq_UTasGp2v6HC-76" target="ZvtriaTq_UTasGp2v6HC-77">
          <mxGeometry width="160" relative="1" as="geometry">
            <mxPoint x="290" y="-280" as="sourcePoint" />
            <mxPoint x="215" y="-468" as="targetPoint" />
          </mxGeometry>
        </mxCell>
        <mxCell id="ZvtriaTq_UTasGp2v6HC-27" value="" style="endArrow=block;endSize=16;endFill=0;html=1;rounded=0;entryX=0;entryY=0.25;entryDx=0;entryDy=0;labelBackgroundColor=none;fontColor=default;exitX=0.983;exitY=0.578;exitDx=0;exitDy=0;exitPerimeter=0;" edge="1" parent="1" source="ZvtriaTq_UTasGp2v6HC-98">
          <mxGeometry width="160" relative="1" as="geometry">
            <mxPoint x="-210" y="-500" as="sourcePoint" />
            <mxPoint x="110" y="-507" as="targetPoint" />
          </mxGeometry>
        </mxCell>
        <mxCell id="ZvtriaTq_UTasGp2v6HC-28" value="" style="endArrow=block;endSize=16;endFill=0;html=1;rounded=0;entryX=0;entryY=0;entryDx=0;entryDy=0;labelBackgroundColor=none;fontColor=default;exitX=1;exitY=0.75;exitDx=0;exitDy=0;" edge="1" parent="1" source="ZvtriaTq_UTasGp2v6HC-97">
          <mxGeometry width="160" relative="1" as="geometry">
            <mxPoint x="-250" y="-577" as="sourcePoint" />
            <mxPoint x="110" y="-520" as="targetPoint" />
          </mxGeometry>
        </mxCell>
        <mxCell id="ZvtriaTq_UTasGp2v6HC-29" value="" style="endArrow=block;endSize=16;endFill=0;html=1;rounded=0;exitX=1;exitY=0;exitDx=0;exitDy=0;labelBackgroundColor=none;fontColor=default;" edge="1" parent="1" source="ZvtriaTq_UTasGp2v6HC-25" target="ZvtriaTq_UTasGp2v6HC-77">
          <mxGeometry width="160" relative="1" as="geometry">
            <mxPoint x="70" y="-205" as="sourcePoint" />
            <mxPoint x="110" y="-481" as="targetPoint" />
          </mxGeometry>
        </mxCell>
        <mxCell id="ZvtriaTq_UTasGp2v6HC-30" value="" style="endArrow=block;endSize=16;endFill=0;html=1;rounded=0;labelBackgroundColor=none;fontColor=default;exitX=0.5;exitY=0;exitDx=0;exitDy=0;" edge="1" parent="1" source="ZvtriaTq_UTasGp2v6HC-78" target="ZvtriaTq_UTasGp2v6HC-77">
          <mxGeometry width="160" relative="1" as="geometry">
            <mxPoint x="120" y="-280" as="sourcePoint" />
            <mxPoint x="170" y="-468" as="targetPoint" />
          </mxGeometry>
        </mxCell>
        <mxCell id="ZvtriaTq_UTasGp2v6HC-31" value="" style="endArrow=block;endSize=16;endFill=0;html=1;rounded=0;exitX=0.5;exitY=0;exitDx=0;exitDy=0;labelBackgroundColor=none;fontColor=default;" edge="1" parent="1" source="ZvtriaTq_UTasGp2v6HC-24" target="ZvtriaTq_UTasGp2v6HC-77">
          <mxGeometry width="160" relative="1" as="geometry">
            <mxPoint x="620" y="-122" as="sourcePoint" />
            <mxPoint x="145" y="-468" as="targetPoint" />
          </mxGeometry>
        </mxCell>
        <mxCell id="ZvtriaTq_UTasGp2v6HC-32" value="" style="endArrow=block;endSize=16;endFill=0;html=1;rounded=0;labelBackgroundColor=none;fontColor=default;exitX=1;exitY=0;exitDx=0;exitDy=0;" edge="1" parent="1" source="ZvtriaTq_UTasGp2v6HC-87" target="ZvtriaTq_UTasGp2v6HC-77">
          <mxGeometry width="160" relative="1" as="geometry">
            <mxPoint x="-120" y="-450" as="sourcePoint" />
            <mxPoint x="110" y="-490" as="targetPoint" />
          </mxGeometry>
        </mxCell>
        <mxCell id="ZvtriaTq_UTasGp2v6HC-33" value="" style="endArrow=block;endSize=16;endFill=0;html=1;rounded=0;exitX=0;exitY=0;exitDx=0;exitDy=0;labelBackgroundColor=none;fontColor=default;entryX=1;entryY=1;entryDx=0;entryDy=0;" edge="1" parent="1" source="ZvtriaTq_UTasGp2v6HC-73" target="ZvtriaTq_UTasGp2v6HC-77">
          <mxGeometry width="160" relative="1" as="geometry">
            <mxPoint x="370" y="-280" as="sourcePoint" />
            <mxPoint x="240" y="-470" as="targetPoint" />
          </mxGeometry>
        </mxCell>
        <mxCell id="ZvtriaTq_UTasGp2v6HC-34" value="" style="endArrow=block;endSize=16;endFill=0;html=1;rounded=0;labelBackgroundColor=none;fontColor=default;" edge="1" parent="1" target="ZvtriaTq_UTasGp2v6HC-77">
          <mxGeometry width="160" relative="1" as="geometry">
            <mxPoint x="195" y="-200" as="sourcePoint" />
            <mxPoint x="190" y="-470" as="targetPoint" />
          </mxGeometry>
        </mxCell>
        <mxCell id="ZvtriaTq_UTasGp2v6HC-35" value="" style="endArrow=block;endSize=16;endFill=0;html=1;rounded=0;entryX=1;entryY=0.75;entryDx=0;entryDy=0;labelBackgroundColor=none;fontColor=default;exitX=0;exitY=0.25;exitDx=0;exitDy=0;" edge="1" parent="1" source="ZvtriaTq_UTasGp2v6HC-74" target="ZvtriaTq_UTasGp2v6HC-77">
          <mxGeometry width="160" relative="1" as="geometry">
            <mxPoint x="457" y="-370" as="sourcePoint" />
            <mxPoint x="272.4000000000001" y="-473.62200000000007" as="targetPoint" />
          </mxGeometry>
        </mxCell>
        <mxCell id="ZvtriaTq_UTasGp2v6HC-36" value="" style="endArrow=diamondThin;endFill=1;endSize=24;html=1;rounded=0;labelBackgroundColor=none;fontColor=default;entryX=0.5;entryY=1;entryDx=0;entryDy=0;exitX=0;exitY=0.192;exitDx=0;exitDy=0;exitPerimeter=0;" edge="1" parent="1" source="ZvtriaTq_UTasGp2v6HC-22" target="ZvtriaTq_UTasGp2v6HC-19">
          <mxGeometry width="160" relative="1" as="geometry">
            <mxPoint x="190" y="-600" as="sourcePoint" />
            <mxPoint x="-260" y="-820" as="targetPoint" />
            <Array as="points">
              <mxPoint x="70" y="-600" />
              <mxPoint x="-90" y="-600" />
            </Array>
          </mxGeometry>
        </mxCell>
        <mxCell id="ZvtriaTq_UTasGp2v6HC-37" value="" style="endArrow=none;html=1;rounded=0;entryX=0;entryY=0.5;entryDx=0;entryDy=0;exitX=0.5;exitY=0;exitDx=0;exitDy=0;" edge="1" parent="1" target="ZvtriaTq_UTasGp2v6HC-22">
          <mxGeometry width="50" height="50" relative="1" as="geometry">
            <mxPoint x="190" y="-540" as="sourcePoint" />
            <mxPoint x="180" y="-548" as="targetPoint" />
            <Array as="points">
              <mxPoint x="170" y="-554" />
            </Array>
          </mxGeometry>
        </mxCell>
        <mxCell id="ZvtriaTq_UTasGp2v6HC-38" value="creates" style="edgeLabel;html=1;align=center;verticalAlign=middle;resizable=0;points=[];" vertex="1" connectable="0" parent="ZvtriaTq_UTasGp2v6HC-37">
          <mxGeometry x="-0.1312" y="3" relative="1" as="geometry">
            <mxPoint as="offset" />
          </mxGeometry>
        </mxCell>
        <mxCell id="ZvtriaTq_UTasGp2v6HC-39" value="" style="endArrow=block;endSize=16;endFill=0;html=1;rounded=0;exitX=1;exitY=0;exitDx=0;exitDy=0;entryX=0.5;entryY=1;entryDx=0;entryDy=0;labelBackgroundColor=none;fontColor=default;" edge="1" parent="1" source="ZvtriaTq_UTasGp2v6HC-22" target="ZvtriaTq_UTasGp2v6HC-5">
          <mxGeometry width="160" relative="1" as="geometry">
            <mxPoint x="900" y="-506" as="sourcePoint" />
            <mxPoint x="980" y="-640" as="targetPoint" />
            <Array as="points">
              <mxPoint x="1320" y="-600" />
            </Array>
          </mxGeometry>
        </mxCell>
        <mxCell id="ZvtriaTq_UTasGp2v6HC-40" value="" style="endArrow=diamondThin;endFill=0;endSize=24;html=1;rounded=0;entryX=0.75;entryY=1;entryDx=0;entryDy=0;" edge="1" parent="1" source="ZvtriaTq_UTasGp2v6HC-80" target="ZvtriaTq_UTasGp2v6HC-79">
          <mxGeometry width="160" relative="1" as="geometry">
            <mxPoint x="720" y="-400" as="sourcePoint" />
            <mxPoint x="630" y="-818" as="targetPoint" />
            <Array as="points">
              <mxPoint x="630" y="-404" />
            </Array>
          </mxGeometry>
        </mxCell>
        <mxCell id="ZvtriaTq_UTasGp2v6HC-41" value="Declbutton" style="swimlane;fontStyle=0;childLayout=stackLayout;horizontal=1;startSize=26;fillColor=none;horizontalStack=0;resizeParent=1;resizeParentMax=0;resizeLast=0;collapsible=1;marginBottom=0;whiteSpace=wrap;html=1;labelBackgroundColor=none;" vertex="1" parent="1">
          <mxGeometry x="650" y="-532" width="140" height="52" as="geometry" />
        </mxCell>
        <mxCell id="ZvtriaTq_UTasGp2v6HC-42" value="" style="endArrow=none;html=1;rounded=0;exitX=0.5;exitY=0;exitDx=0;exitDy=0;" edge="1" parent="1" source="ZvtriaTq_UTasGp2v6HC-80">
          <mxGeometry width="50" height="50" relative="1" as="geometry">
            <mxPoint x="770" y="-430" as="sourcePoint" />
            <mxPoint x="710" y="-480" as="targetPoint" />
          </mxGeometry>
        </mxCell>
        <mxCell id="ZvtriaTq_UTasGp2v6HC-43" value="creates" style="edgeLabel;html=1;align=center;verticalAlign=middle;resizable=0;points=[];" vertex="1" connectable="0" parent="ZvtriaTq_UTasGp2v6HC-42">
          <mxGeometry x="-0.0101" y="3" relative="1" as="geometry">
            <mxPoint y="1" as="offset" />
          </mxGeometry>
        </mxCell>
        <mxCell id="ZvtriaTq_UTasGp2v6HC-44" value="" style="endArrow=block;endSize=16;endFill=0;html=1;rounded=0;exitX=1;exitY=0.5;exitDx=0;exitDy=0;labelBackgroundColor=none;fontColor=default;" edge="1" parent="1" source="ZvtriaTq_UTasGp2v6HC-41">
          <mxGeometry width="160" relative="1" as="geometry">
            <mxPoint x="1100" y="-386" as="sourcePoint" />
            <mxPoint x="1360" y="-820" as="targetPoint" />
            <Array as="points">
              <mxPoint x="1360" y="-510" />
            </Array>
          </mxGeometry>
        </mxCell>
        <mxCell id="ZvtriaTq_UTasGp2v6HC-45" value="" style="endArrow=diamondThin;endFill=1;endSize=24;html=1;rounded=0;labelBackgroundColor=none;fontColor=default;exitX=0.074;exitY=0;exitDx=0;exitDy=0;exitPerimeter=0;entryX=1;entryY=1;entryDx=0;entryDy=0;" edge="1" parent="1" source="ZvtriaTq_UTasGp2v6HC-41" target="ZvtriaTq_UTasGp2v6HC-79">
          <mxGeometry width="160" relative="1" as="geometry">
            <mxPoint x="650" y="-540" as="sourcePoint" />
            <mxPoint x="650" y="-818" as="targetPoint" />
            <Array as="points" />
          </mxGeometry>
        </mxCell>
        <mxCell id="ZvtriaTq_UTasGp2v6HC-46" value="" style="endArrow=none;html=1;rounded=0;" edge="1" parent="1" source="ZvtriaTq_UTasGp2v6HC-80" target="ZvtriaTq_UTasGp2v6HC-81">
          <mxGeometry width="50" height="50" relative="1" as="geometry">
            <mxPoint x="890" y="-394" as="sourcePoint" />
            <mxPoint x="970" y="-404" as="targetPoint" />
            <Array as="points">
              <mxPoint x="930" y="-400" />
            </Array>
          </mxGeometry>
        </mxCell>
        <mxCell id="ZvtriaTq_UTasGp2v6HC-47" value="" style="endArrow=diamondThin;endFill=0;endSize=24;html=1;rounded=0;" edge="1" parent="1" source="ZvtriaTq_UTasGp2v6HC-81" target="ZvtriaTq_UTasGp2v6HC-82">
          <mxGeometry width="160" relative="1" as="geometry">
            <mxPoint x="1130" y="-404" as="sourcePoint" />
            <mxPoint x="1270" y="-404" as="targetPoint" />
            <Array as="points">
              <mxPoint x="1200" y="-404" />
            </Array>
          </mxGeometry>
        </mxCell>
        <mxCell id="ZvtriaTq_UTasGp2v6HC-48" value="" style="endArrow=diamondThin;endFill=0;endSize=24;html=1;rounded=0;exitX=1;exitY=0.75;exitDx=0;exitDy=0;" edge="1" parent="1" source="ZvtriaTq_UTasGp2v6HC-73" target="ZvtriaTq_UTasGp2v6HC-85">
          <mxGeometry width="160" relative="1" as="geometry">
            <mxPoint x="520" y="-211" as="sourcePoint" />
            <mxPoint x="760" y="-220" as="targetPoint" />
            <Array as="points" />
          </mxGeometry>
        </mxCell>
        <mxCell id="ZvtriaTq_UTasGp2v6HC-49" value="&lt;span style=&quot;color: rgba(0, 0, 0, 0); font-family: monospace; font-size: 0px; text-align: start; background-color: rgb(236, 236, 236);&quot;&gt;%3CmxGraphModel%3E%3Croot%3E%3CmxCell%20id%3D%220%22%2F%3E%3CmxCell%20id%3D%221%22%20parent%3D%220%22%2F%3E%3CmxCell%20id%3D%222%22%20value%3D%22%22%20style%3D%22endArrow%3DdiamondThin%3BendFill%3D0%3BendSize%3D24%3Bhtml%3D1%3Brounded%3D0%3B%22%20edge%3D%221%22%20parent%3D%221%22%3E%3CmxGeometry%20width%3D%22160%22%20relative%3D%221%22%20as%3D%22geometry%22%3E%3CmxPoint%20x%3D%22610%22%20y%3D%22961%22%20as%3D%22sourcePoint%22%2F%3E%3CmxPoint%20x%3D%22700%22%20y%3D%22961%22%20as%3D%22targetPoint%22%2F%3E%3CArray%20as%3D%22points%22%3E%3CmxPoint%20x%3D%22640%22%20y%3D%22960%22%2F%3E%3C%2FArray%3E%3C%2FmxGeometry%3E%3C%2FmxCell%3E%3C%2Froot%3E%3C%2FmxGraphModel%3E&lt;/span&gt;" style="endArrow=diamondThin;endFill=0;endSize=24;html=1;rounded=0;exitX=0.5;exitY=1;exitDx=0;exitDy=0;" edge="1" parent="1" source="ZvtriaTq_UTasGp2v6HC-24" target="ZvtriaTq_UTasGp2v6HC-85">
          <mxGeometry width="160" relative="1" as="geometry">
            <mxPoint x="-60" y="-50" as="sourcePoint" />
            <mxPoint x="880" y="-160" as="targetPoint" />
            <Array as="points">
              <mxPoint x="-10" y="-50" />
              <mxPoint x="800" y="-20" />
            </Array>
          </mxGeometry>
        </mxCell>
        <mxCell id="ZvtriaTq_UTasGp2v6HC-50" value="" style="endArrow=diamondThin;endFill=0;endSize=24;html=1;rounded=0;exitX=1.014;exitY=0.916;exitDx=0;exitDy=0;exitPerimeter=0;" edge="1" parent="1" source="ZvtriaTq_UTasGp2v6HC-74" target="ZvtriaTq_UTasGp2v6HC-85">
          <mxGeometry width="160" relative="1" as="geometry">
            <mxPoint x="590" y="-324" as="sourcePoint" />
            <mxPoint x="760" y="-250" as="targetPoint" />
            <Array as="points" />
          </mxGeometry>
        </mxCell>
        <mxCell id="ZvtriaTq_UTasGp2v6HC-51" value="" style="endArrow=diamondThin;endFill=0;endSize=24;html=1;rounded=0;exitX=1;exitY=0;exitDx=0;exitDy=0;" edge="1" parent="1" target="ZvtriaTq_UTasGp2v6HC-85">
          <mxGeometry width="160" relative="1" as="geometry">
            <mxPoint x="300" y="-180" as="sourcePoint" />
            <mxPoint x="770" y="-179" as="targetPoint" />
            <Array as="points">
              <mxPoint x="710" y="-180" />
              <mxPoint x="740" y="-179" />
            </Array>
          </mxGeometry>
        </mxCell>
        <mxCell id="ZvtriaTq_UTasGp2v6HC-52" value="" style="endArrow=diamondThin;endFill=0;endSize=24;html=1;rounded=0;" edge="1" parent="1" target="ZvtriaTq_UTasGp2v6HC-85">
          <mxGeometry width="160" relative="1" as="geometry">
            <mxPoint x="360" y="-220" as="sourcePoint" />
            <mxPoint x="780" y="-170" as="targetPoint" />
            <Array as="points">
              <mxPoint x="360" y="-120" />
              <mxPoint x="780" y="-120" />
            </Array>
          </mxGeometry>
        </mxCell>
        <mxCell id="ZvtriaTq_UTasGp2v6HC-53" value="&lt;span style=&quot;color: rgba(0, 0, 0, 0); font-family: monospace; font-size: 0px; text-align: start; background-color: rgb(236, 236, 236);&quot;&gt;%3CmxGraphModel%3E%3Croot%3E%3CmxCell%20id%3D%220%22%2F%3E%3CmxCell%20id%3D%221%22%20parent%3D%220%22%2F%3E%3CmxCell%20id%3D%222%22%20value%3D%22%22%20style%3D%22endArrow%3DdiamondThin%3BendFill%3D0%3BendSize%3D24%3Bhtml%3D1%3Brounded%3D0%3B%22%20edge%3D%221%22%20parent%3D%221%22%3E%3CmxGeometry%20width%3D%22160%22%20relative%3D%221%22%20as%3D%22geometry%22%3E%3CmxPoint%20x%3D%22610%22%20y%3D%22961%22%20as%3D%22sourcePoint%22%2F%3E%3CmxPoint%20x%3D%22700%22%20y%3D%22961%22%20as%3D%22targetPoint%22%2F%3E%3CArray%20as%3D%22points%22%3E%3CmxPoint%20x%3D%22640%22%20y%3D%22960%22%2F%3E%3C%2FArray%3E%3C%2FmxGeometry%3E%3C%2FmxCell%3E%3C%2Froot%3E%3C%2FmxGraphModel%3E&lt;/span&gt;" style="endArrow=diamondThin;endFill=0;endSize=24;html=1;rounded=0;exitX=0.614;exitY=0.957;exitDx=0;exitDy=0;exitPerimeter=0;" edge="1" parent="1" source="ZvtriaTq_UTasGp2v6HC-78" target="ZvtriaTq_UTasGp2v6HC-85">
          <mxGeometry width="160" relative="1" as="geometry">
            <mxPoint x="120" y="-230" as="sourcePoint" />
            <mxPoint x="840" y="-160" as="targetPoint" />
            <Array as="points">
              <mxPoint x="126" y="-60" />
              <mxPoint x="770" y="-50" />
            </Array>
          </mxGeometry>
        </mxCell>
        <mxCell id="ZvtriaTq_UTasGp2v6HC-54" value="&lt;span style=&quot;color: rgba(0, 0, 0, 0); font-family: monospace; font-size: 0px; text-align: start; background-color: rgb(236, 236, 236);&quot;&gt;%3CmxGraphModel%3E%3Croot%3E%3CmxCell%20id%3D%220%22%2F%3E%3CmxCell%20id%3D%221%22%20parent%3D%220%22%2F%3E%3CmxCell%20id%3D%222%22%20value%3D%22%22%20style%3D%22endArrow%3DdiamondThin%3BendFill%3D0%3BendSize%3D24%3Bhtml%3D1%3Brounded%3D0%3B%22%20edge%3D%221%22%20parent%3D%221%22%3E%3CmxGeometry%20width%3D%22160%22%20relative%3D%221%22%20as%3D%22geometry%22%3E%3CmxPoint%20x%3D%22610%22%20y%3D%22961%22%20as%3D%22sourcePoint%22%2F%3E%3CmxPoint%20x%3D%22700%22%20y%3D%22961%22%20as%3D%22targetPoint%22%2F%3E%3CArray%20as%3D%22points%22%3E%3CmxPoint%20x%3D%22640%22%20y%3D%22960%22%2F%3E%3C%2FArray%3E%3C%2FmxGeometry%3E%3C%2FmxCell%3E%3C%2Froot%3E%3C%2FmxGraphModel%3E&lt;/span&gt;" style="endArrow=diamondThin;endFill=0;endSize=24;html=1;rounded=0;exitX=0.25;exitY=1;exitDx=0;exitDy=0;" edge="1" parent="1" source="ZvtriaTq_UTasGp2v6HC-73">
          <mxGeometry width="160" relative="1" as="geometry">
            <mxPoint x="450" y="-200" as="sourcePoint" />
            <mxPoint x="-70" y="230" as="targetPoint" />
            <Array as="points">
              <mxPoint x="450" y="230" />
            </Array>
          </mxGeometry>
        </mxCell>
        <mxCell id="ZvtriaTq_UTasGp2v6HC-55" value="&lt;span style=&quot;color: rgba(0, 0, 0, 0); font-family: monospace; font-size: 0px; text-align: start; background-color: rgb(236, 236, 236);&quot;&gt;%3CmxGraphModel%3E%3Croot%3E%3CmxCell%20id%3D%220%22%2F%3E%3CmxCell%20id%3D%221%22%20parent%3D%220%22%2F%3E%3CmxCell%20id%3D%222%22%20value%3D%22%22%20style%3D%22endArrow%3DdiamondThin%3BendFill%3D0%3BendSize%3D24%3Bhtml%3D1%3Brounded%3D0%3B%22%20edge%3D%221%22%20parent%3D%221%22%3E%3CmxGeometry%20width%3D%22160%22%20relative%3D%221%22%20as%3D%22geometry%22%3E%3CmxPoint%20x%3D%22610%22%20y%3D%22961%22%20as%3D%22sourcePoint%22%2F%3E%3CmxPoint%20x%3D%22700%22%20y%3D%22961%22%20as%3D%22targetPoint%22%2F%3E%3CArray%20as%3D%22points%22%3E%3CmxPoint%20x%3D%22640%22%20y%3D%22960%22%2F%3E%3C%2FArray%3E%3C%2FmxGeometry%3E%3C%2FmxCell%3E%3C%2Froot%3E%3C%2FmxGraphModel%3E&lt;/span&gt;" style="endArrow=diamondThin;endFill=0;endSize=24;html=1;rounded=0;exitX=0.25;exitY=1;exitDx=0;exitDy=0;" edge="1" parent="1" source="ZvtriaTq_UTasGp2v6HC-25" target="ZvtriaTq_UTasGp2v6HC-85">
          <mxGeometry width="160" relative="1" as="geometry">
            <mxPoint x="-90" y="11" as="sourcePoint" />
            <mxPoint x="805" y="-160" as="targetPoint" />
            <Array as="points">
              <mxPoint x="-135" />
              <mxPoint x="800" y="11" />
            </Array>
          </mxGeometry>
        </mxCell>
        <mxCell id="ZvtriaTq_UTasGp2v6HC-56" value="&lt;span style=&quot;color: rgba(0, 0, 0, 0); font-family: monospace; font-size: 0px; text-align: start; background-color: rgb(236, 236, 236);&quot;&gt;%3CmxGraphModel%3E%3Croot%3E%3CmxCell%20id%3D%220%22%2F%3E%3CmxCell%20id%3D%221%22%20parent%3D%220%22%2F%3E%3CmxCell%20id%3D%222%22%20value%3D%22%22%20style%3D%22endArrow%3DdiamondThin%3BendFill%3D0%3BendSize%3D24%3Bhtml%3D1%3Brounded%3D0%3B%22%20edge%3D%221%22%20parent%3D%221%22%3E%3CmxGeometry%20width%3D%22160%22%20relative%3D%221%22%20as%3D%22geometry%22%3E%3CmxPoint%20x%3D%22610%22%20y%3D%22961%22%20as%3D%22sourcePoint%22%2F%3E%3CmxPoint%20x%3D%22700%22%20y%3D%22961%22%20as%3D%22targetPoint%22%2F%3E%3CArray%20as%3D%22points%22%3E%3CmxPoint%20x%3D%22640%22%20y%3D%22960%22%2F%3E%3C%2FArray%3E%3C%2FmxGeometry%3E%3C%2FmxCell%3E%3C%2Froot%3E%3C%2FmxGraphModel%3E&lt;/span&gt;" style="endArrow=diamondThin;endFill=0;endSize=24;html=1;rounded=0;exitX=0.5;exitY=1;exitDx=0;exitDy=0;entryX=0.296;entryY=1.009;entryDx=0;entryDy=0;entryPerimeter=0;" edge="1" parent="1" source="ZvtriaTq_UTasGp2v6HC-87" target="ZvtriaTq_UTasGp2v6HC-85">
          <mxGeometry width="160" relative="1" as="geometry">
            <mxPoint x="-220" y="-370" as="sourcePoint" />
            <mxPoint x="910" y="-170" as="targetPoint" />
            <Array as="points">
              <mxPoint x="-210" y="40" />
              <mxPoint x="950" y="40" />
            </Array>
          </mxGeometry>
        </mxCell>
        <mxCell id="ZvtriaTq_UTasGp2v6HC-58" value="&lt;span style=&quot;color: rgba(0, 0, 0, 0); font-family: monospace; font-size: 0px; text-align: start; background-color: rgb(236, 236, 236);&quot;&gt;%3CmxGraphModel%3E%3Croot%3E%3CmxCell%20id%3D%220%22%2F%3E%3CmxCell%20id%3D%221%22%20parent%3D%220%22%2F%3E%3CmxCell%20id%3D%222%22%20value%3D%22%22%20style%3D%22endArrow%3DdiamondThin%3BendFill%3D0%3BendSize%3D24%3Bhtml%3D1%3Brounded%3D0%3B%22%20edge%3D%221%22%20parent%3D%221%22%3E%3CmxGeometry%20width%3D%22160%22%20relative%3D%221%22%20as%3D%22geometry%22%3E%3CmxPoint%20x%3D%22610%22%20y%3D%22961%22%20as%3D%22sourcePoint%22%2F%3E%3CmxPoint%20x%3D%22700%22%20y%3D%22961%22%20as%3D%22targetPoint%22%2F%3E%3CArray%20as%3D%22points%22%3E%3CmxPoint%20x%3D%22640%22%20y%3D%22960%22%2F%3E%3C%2FArray%3E%3C%2FmxGeometry%3E%3C%2FmxCell%3E%3C%2Froot%3E%3C%2FmxGraphModel%3E&lt;/span&gt;" style="endArrow=diamondThin;endFill=0;endSize=24;html=1;rounded=0;exitX=0;exitY=1;exitDx=0;exitDy=0;" edge="1" parent="1" source="ZvtriaTq_UTasGp2v6HC-97">
          <mxGeometry width="160" relative="1" as="geometry">
            <mxPoint x="-410" y="-530" as="sourcePoint" />
            <mxPoint x="-290" y="215" as="targetPoint" />
            <Array as="points">
              <mxPoint x="-410" y="-450" />
              <mxPoint x="-410" y="210" />
            </Array>
          </mxGeometry>
        </mxCell>
        <mxCell id="ZvtriaTq_UTasGp2v6HC-59" value="&lt;span style=&quot;color: rgba(0, 0, 0, 0); font-family: monospace; font-size: 0px; text-align: start; background-color: rgb(236, 236, 236);&quot;&gt;%3CmxGraphModel%3E%3Croot%3E%3CmxCell%20id%3D%220%22%2F%3E%3CmxCell%20id%3D%221%22%20parent%3D%220%22%2F%3E%3CmxCell%20id%3D%222%22%20value%3D%22%22%20style%3D%22endArrow%3DdiamondThin%3BendFill%3D0%3BendSize%3D24%3Bhtml%3D1%3Brounded%3D0%3B%22%20edge%3D%221%22%20parent%3D%221%22%3E%3CmxGeometry%20width%3D%22160%22%20relative%3D%221%22%20as%3D%22geometry%22%3E%3CmxPoint%20x%3D%22610%22%20y%3D%22961%22%20as%3D%22sourcePoint%22%2F%3E%3CmxPoint%20x%3D%22700%22%20y%3D%22961%22%20as%3D%22targetPoint%22%2F%3E%3CArray%20as%3D%22points%22%3E%3CmxPoint%20x%3D%22640%22%20y%3D%22960%22%2F%3E%3C%2FArray%3E%3C%2FmxGeometry%3E%3C%2FmxCell%3E%3C%2Froot%3E%3C%2FmxGraphModel%3E&lt;/span&gt;" style="endArrow=diamondThin;endFill=0;endSize=24;html=1;rounded=0;exitX=0.5;exitY=1;exitDx=0;exitDy=0;" edge="1" parent="1" source="ZvtriaTq_UTasGp2v6HC-98">
          <mxGeometry width="160" relative="1" as="geometry">
            <mxPoint x="-300" y="-440" as="sourcePoint" />
            <mxPoint x="-270" y="180" as="targetPoint" />
            <Array as="points">
              <mxPoint x="-300" y="180" />
            </Array>
          </mxGeometry>
        </mxCell>
        <mxCell id="ZvtriaTq_UTasGp2v6HC-60" value="&lt;span style=&quot;color: rgba(0, 0, 0, 0); font-family: monospace; font-size: 0px; text-align: start; background-color: rgb(236, 236, 236);&quot;&gt;%3CmxGraphModel%3E%3Croot%3E%3CmxCell%20id%3D%220%22%2F%3E%3CmxCell%20id%3D%221%22%20parent%3D%220%22%2F%3E%3CmxCell%20id%3D%222%22%20value%3D%22%22%20style%3D%22endArrow%3DdiamondThin%3BendFill%3D0%3BendSize%3D24%3Bhtml%3D1%3Brounded%3D0%3B%22%20edge%3D%221%22%20parent%3D%221%22%3E%3CmxGeometry%20width%3D%22160%22%20relative%3D%221%22%20as%3D%22geometry%22%3E%3CmxPoint%20x%3D%22610%22%20y%3D%22961%22%20as%3D%22sourcePoint%22%2F%3E%3CmxPoint%20x%3D%22700%22%20y%3D%22961%22%20as%3D%22targetPoint%22%2F%3E%3CArray%20as%3D%22points%22%3E%3CmxPoint%20x%3D%22640%22%20y%3D%22960%22%2F%3E%3C%2FArray%3E%3C%2FmxGeometry%3E%3C%2FmxCell%3E%3C%2Froot%3E%3C%2FmxGraphModel%3E&lt;/span&gt;" style="endArrow=diamondThin;endFill=0;endSize=24;html=1;rounded=0;exitX=0.25;exitY=1;exitDx=0;exitDy=0;entryX=1;entryY=0.25;entryDx=0;entryDy=0;" edge="1" parent="1" target="ZvtriaTq_UTasGp2v6HC-108">
          <mxGeometry width="160" relative="1" as="geometry">
            <mxPoint x="195" y="-128" as="sourcePoint" />
            <mxPoint x="-90" y="200" as="targetPoint" />
            <Array as="points">
              <mxPoint x="190" y="200" />
            </Array>
          </mxGeometry>
        </mxCell>
        <mxCell id="ZvtriaTq_UTasGp2v6HC-61" value="&lt;span style=&quot;color: rgba(0, 0, 0, 0); font-family: monospace; font-size: 0px; text-align: start; background-color: rgb(236, 236, 236);&quot;&gt;%3CmxGraphModel%3E%3Croot%3E%3CmxCell%20id%3D%220%22%2F%3E%3CmxCell%20id%3D%221%22%20parent%3D%220%22%2F%3E%3CmxCell%20id%3D%222%22%20value%3D%22%22%20style%3D%22endArrow%3DdiamondThin%3BendFill%3D0%3BendSize%3D24%3Bhtml%3D1%3Brounded%3D0%3B%22%20edge%3D%221%22%20parent%3D%221%22%3E%3CmxGeometry%20width%3D%22160%22%20relative%3D%221%22%20as%3D%22geometry%22%3E%3CmxPoint%20x%3D%22610%22%20y%3D%22961%22%20as%3D%22sourcePoint%22%2F%3E%3CmxPoint%20x%3D%22700%22%20y%3D%22961%22%20as%3D%22targetPoint%22%2F%3E%3CArray%20as%3D%22points%22%3E%3CmxPoint%20x%3D%22640%22%20y%3D%22960%22%2F%3E%3C%2FArray%3E%3C%2FmxGeometry%3E%3C%2FmxCell%3E%3C%2Froot%3E%3C%2FmxGraphModel%3E&lt;/span&gt;" style="endArrow=diamondThin;endFill=0;endSize=24;html=1;rounded=0;" edge="1" parent="1" source="ZvtriaTq_UTasGp2v6HC-78">
          <mxGeometry width="160" relative="1" as="geometry">
            <mxPoint x="110" y="-200" as="sourcePoint" />
            <mxPoint x="-80" y="180" as="targetPoint" />
            <Array as="points">
              <mxPoint x="110" y="180" />
            </Array>
          </mxGeometry>
        </mxCell>
        <mxCell id="ZvtriaTq_UTasGp2v6HC-62" value="&lt;span style=&quot;color: rgba(0, 0, 0, 0); font-family: monospace; font-size: 0px; text-align: start; background-color: rgb(236, 236, 236);&quot;&gt;%3CmxGraphModel%3E%3Croot%3E%3CmxCell%20id%3D%220%22%2F%3E%3CmxCell%20id%3D%221%22%20parent%3D%220%22%2F%3E%3CmxCell%20id%3D%222%22%20value%3D%22%22%20style%3D%22endArrow%3DdiamondThin%3BendFill%3D0%3BendSize%3D24%3Bhtml%3D1%3Brounded%3D0%3B%22%20edge%3D%221%22%20parent%3D%221%22%3E%3CmxGeometry%20width%3D%22160%22%20relative%3D%221%22%20as%3D%22geometry%22%3E%3CmxPoint%20x%3D%22610%22%20y%3D%22961%22%20as%3D%22sourcePoint%22%2F%3E%3CmxPoint%20x%3D%22700%22%20y%3D%22961%22%20as%3D%22targetPoint%22%2F%3E%3CArray%20as%3D%22points%22%3E%3CmxPoint%20x%3D%22640%22%20y%3D%22960%22%2F%3E%3C%2FArray%3E%3C%2FmxGeometry%3E%3C%2FmxCell%3E%3C%2Froot%3E%3C%2FmxGraphModel%3E&lt;/span&gt;" style="endArrow=diamondThin;endFill=0;endSize=24;html=1;rounded=0;" edge="1" parent="1">
          <mxGeometry width="160" relative="1" as="geometry">
            <mxPoint x="320" y="-210" as="sourcePoint" />
            <mxPoint x="-70" y="220" as="targetPoint" />
            <Array as="points">
              <mxPoint x="320" y="220" />
            </Array>
          </mxGeometry>
        </mxCell>
        <mxCell id="ZvtriaTq_UTasGp2v6HC-63" value="&lt;span style=&quot;color: rgba(0, 0, 0, 0); font-family: monospace; font-size: 0px; text-align: start; background-color: rgb(236, 236, 236);&quot;&gt;%3CmxGraphModel%3E%3Croot%3E%3CmxCell%20id%3D%220%22%2F%3E%3CmxCell%20id%3D%221%22%20parent%3D%220%22%2F%3E%3CmxCell%20id%3D%222%22%20value%3D%22%22%20style%3D%22endArrow%3DdiamondThin%3BendFill%3D0%3BendSize%3D24%3Bhtml%3D1%3Brounded%3D0%3B%22%20edge%3D%221%22%20parent%3D%221%22%3E%3CmxGeometry%20width%3D%22160%22%20relative%3D%221%22%20as%3D%22geometry%22%3E%3CmxPoint%20x%3D%22610%22%20y%3D%22961%22%20as%3D%22sourcePoint%22%2F%3E%3CmxPoint%20x%3D%22700%22%20y%3D%22961%22%20as%3D%22targetPoint%22%2F%3E%3CArray%20as%3D%22points%22%3E%3CmxPoint%20x%3D%22640%22%20y%3D%22960%22%2F%3E%3C%2FArray%3E%3C%2FmxGeometry%3E%3C%2FmxCell%3E%3C%2Froot%3E%3C%2FmxGraphModel%3E&lt;/span&gt;" style="endArrow=diamondThin;endFill=0;endSize=24;html=1;rounded=0;exitX=1;exitY=0;exitDx=0;exitDy=0;" edge="1" parent="1" source="ZvtriaTq_UTasGp2v6HC-73">
          <mxGeometry width="160" relative="1" as="geometry">
            <mxPoint x="530" y="-290" as="sourcePoint" />
            <mxPoint x="-70" y="260" as="targetPoint" />
            <Array as="points">
              <mxPoint x="580" y="261" />
            </Array>
          </mxGeometry>
        </mxCell>
        <mxCell id="ZvtriaTq_UTasGp2v6HC-64" value="Check" style="swimlane;fontStyle=0;childLayout=stackLayout;horizontal=1;startSize=26;fillColor=none;horizontalStack=0;resizeParent=1;resizeParentMax=0;resizeLast=0;collapsible=1;marginBottom=0;whiteSpace=wrap;html=1;labelBackgroundColor=none;" vertex="1" parent="1">
          <mxGeometry x="1020" y="-670" width="140" height="52" as="geometry" />
        </mxCell>
        <mxCell id="ZvtriaTq_UTasGp2v6HC-65" value="" style="endArrow=block;endSize=16;endFill=0;html=1;rounded=0;exitX=1;exitY=0.75;exitDx=0;exitDy=0;entryX=0.25;entryY=1;entryDx=0;entryDy=0;labelBackgroundColor=none;fontColor=default;" edge="1" parent="1" source="ZvtriaTq_UTasGp2v6HC-64" target="ZvtriaTq_UTasGp2v6HC-5">
          <mxGeometry width="160" relative="1" as="geometry">
            <mxPoint x="1210" y="-710" as="sourcePoint" />
            <mxPoint x="1299.9999999999995" y="-774" as="targetPoint" />
          </mxGeometry>
        </mxCell>
        <mxCell id="ZvtriaTq_UTasGp2v6HC-66" value="" style="endArrow=diamondThin;endFill=1;endSize=24;html=1;rounded=0;exitX=0;exitY=0.5;exitDx=0;exitDy=0;labelBackgroundColor=none;fontColor=default;" edge="1" parent="1" source="ZvtriaTq_UTasGp2v6HC-64" target="ZvtriaTq_UTasGp2v6HC-79">
          <mxGeometry width="160" relative="1" as="geometry">
            <mxPoint x="1020" y="-684" as="sourcePoint" />
            <mxPoint x="660" y="-810" as="targetPoint" />
          </mxGeometry>
        </mxCell>
        <mxCell id="ZvtriaTq_UTasGp2v6HC-67" value="" style="endArrow=diamondThin;endFill=1;endSize=24;html=1;rounded=0;labelBackgroundColor=none;fontColor=default;exitX=0;exitY=0.5;exitDx=0;exitDy=0;" edge="1" parent="1" source="ZvtriaTq_UTasGp2v6HC-95" target="ZvtriaTq_UTasGp2v6HC-79">
          <mxGeometry width="160" relative="1" as="geometry">
            <mxPoint x="980" y="-900" as="sourcePoint" />
            <mxPoint x="680" y="-854" as="targetPoint" />
          </mxGeometry>
        </mxCell>
        <mxCell id="ZvtriaTq_UTasGp2v6HC-68" value="Debug" style="swimlane;fontStyle=0;childLayout=stackLayout;horizontal=1;startSize=26;fillColor=none;horizontalStack=0;resizeParent=1;resizeParentMax=0;resizeLast=0;collapsible=1;marginBottom=0;whiteSpace=wrap;html=1;labelBackgroundColor=none;" vertex="1" parent="1">
          <mxGeometry x="1020" y="-1110" width="140" height="52" as="geometry" />
        </mxCell>
        <mxCell id="ZvtriaTq_UTasGp2v6HC-69" value="" style="endArrow=diamondThin;endFill=1;endSize=24;html=1;rounded=0;exitX=0;exitY=0.5;exitDx=0;exitDy=0;labelBackgroundColor=none;fontColor=default;entryX=1;entryY=0;entryDx=0;entryDy=0;" edge="1" parent="1" source="ZvtriaTq_UTasGp2v6HC-83" target="ZvtriaTq_UTasGp2v6HC-79">
          <mxGeometry width="160" relative="1" as="geometry">
            <mxPoint x="1020" y="-1082.5" as="sourcePoint" />
            <mxPoint x="670" y="-890" as="targetPoint" />
          </mxGeometry>
        </mxCell>
        <mxCell id="ZvtriaTq_UTasGp2v6HC-70" value="" style="endArrow=block;endSize=16;endFill=0;html=1;rounded=0;exitX=1;exitY=0.5;exitDx=0;exitDy=0;entryX=0.25;entryY=0;entryDx=0;entryDy=0;labelBackgroundColor=none;fontColor=default;" edge="1" parent="1" source="ZvtriaTq_UTasGp2v6HC-83" target="ZvtriaTq_UTasGp2v6HC-5">
          <mxGeometry width="160" relative="1" as="geometry">
            <mxPoint x="1160" y="-1102" as="sourcePoint" />
            <mxPoint x="1249.9999999999995" y="-938" as="targetPoint" />
          </mxGeometry>
        </mxCell>
        <mxCell id="ZvtriaTq_UTasGp2v6HC-71" value="&lt;p style=&quot;margin:0px;margin-top:4px;text-align:center;&quot;&gt;&lt;b&gt;Canvas&lt;/b&gt;&lt;/p&gt;&lt;hr size=&quot;1&quot; style=&quot;border-style:solid;&quot;&gt;&lt;div style=&quot;height:2px;&quot;&gt;-&lt;/div&gt;&lt;p style=&quot;margin: 0px 0px 0px 4px;&quot;&gt;&lt;br&gt;&lt;/p&gt;" style="verticalAlign=top;align=left;overflow=fill;html=1;whiteSpace=wrap;" vertex="1" parent="1">
          <mxGeometry x="400" y="-780" width="210" height="180" as="geometry" />
        </mxCell>
        <mxCell id="ZvtriaTq_UTasGp2v6HC-72" value="&lt;p style=&quot;margin:0px;margin-top:4px;text-align:center;&quot;&gt;&lt;b&gt;Panel&lt;/b&gt;&lt;/p&gt;&lt;hr size=&quot;1&quot; style=&quot;border-style:solid;&quot;&gt;&lt;div style=&quot;height:2px;&quot;&gt;&lt;/div&gt;&lt;hr size=&quot;1&quot; style=&quot;border-style:solid;&quot;&gt;&lt;div style=&quot;height:2px;&quot;&gt;&lt;/div&gt;" style="verticalAlign=top;align=left;overflow=fill;html=1;whiteSpace=wrap;" vertex="1" parent="1">
          <mxGeometry x="320" y="-1030" width="140" height="60" as="geometry" />
        </mxCell>
        <mxCell id="ZvtriaTq_UTasGp2v6HC-73" value="&lt;p style=&quot;margin:0px;margin-top:4px;text-align:center;&quot;&gt;&lt;b&gt;IfBlock&lt;/b&gt;&lt;/p&gt;&lt;hr size=&quot;1&quot; style=&quot;border-style:solid;&quot;&gt;&lt;p style=&quot;margin:0px;margin-left:4px;&quot;&gt;public int endifpos;&lt;/p&gt;&lt;div&gt;&lt;br&gt;&lt;/div&gt;&lt;hr size=&quot;1&quot; style=&quot;border-style:solid;&quot;&gt;&lt;p style=&quot;margin:0px;margin-left:4px;&quot;&gt;public String checkif()&lt;/p&gt;&lt;p style=&quot;margin:0px;margin-left:4px;&quot;&gt;public int execute()&lt;/p&gt;&lt;p style=&quot;margin:0px;margin-left:4px;&quot;&gt;&lt;br&gt;&lt;/p&gt;" style="verticalAlign=top;align=left;overflow=fill;html=1;whiteSpace=wrap;" vertex="1" parent="1">
          <mxGeometry x="420" y="-342" width="160" height="102" as="geometry" />
        </mxCell>
        <mxCell id="ZvtriaTq_UTasGp2v6HC-74" value="&lt;p style=&quot;margin:0px;margin-top:4px;text-align:center;&quot;&gt;&lt;b&gt;EndIfBlock&lt;/b&gt;&lt;/p&gt;&lt;hr size=&quot;1&quot; style=&quot;border-style:solid;&quot;&gt;&lt;p style=&quot;margin:0px;margin-left:4px;&quot;&gt;public int ifpos;&lt;/p&gt;&lt;div&gt;&lt;br&gt;&lt;/div&gt;&lt;hr size=&quot;1&quot; style=&quot;border-style:solid;&quot;&gt;&lt;p style=&quot;margin:0px;margin-left:4px;&quot;&gt;&lt;br&gt;&lt;/p&gt;" style="verticalAlign=top;align=left;overflow=fill;html=1;whiteSpace=wrap;" vertex="1" parent="1">
          <mxGeometry x="460" y="-430" width="140" height="70" as="geometry" />
        </mxCell>
        <mxCell id="ZvtriaTq_UTasGp2v6HC-75" value="&lt;p style=&quot;margin:0px;margin-top:4px;text-align:center;&quot;&gt;&lt;b&gt;WhileBlock&lt;/b&gt;&lt;/p&gt;&lt;hr size=&quot;1&quot; style=&quot;border-style:solid;&quot;&gt;&lt;p style=&quot;margin: 0px 0px 0px 4px;&quot;&gt;&lt;span style=&quot;background-color: transparent; color: light-dark(rgb(0, 0, 0), rgb(255, 255, 255));&quot;&gt;public int endwhilepos;&lt;/span&gt;&lt;/p&gt;&lt;hr size=&quot;1&quot; style=&quot;border-style:solid;&quot;&gt;&lt;p style=&quot;margin:0px;margin-left:4px;&quot;&gt;&lt;span style=&quot;background-color: transparent; color: light-dark(rgb(0, 0, 0), rgb(255, 255, 255));&quot;&gt;public String checkwhile()&lt;/span&gt;&lt;/p&gt;&lt;p style=&quot;margin:0px;margin-left:4px;&quot;&gt;public int execute()&lt;/p&gt;&lt;p style=&quot;margin:0px;margin-left:4px;&quot;&gt;&lt;br&gt;&lt;/p&gt;" style="verticalAlign=top;align=left;overflow=fill;html=1;whiteSpace=wrap;" vertex="1" parent="1">
          <mxGeometry x="140" y="-200" width="160" height="90" as="geometry" />
        </mxCell>
        <mxCell id="ZvtriaTq_UTasGp2v6HC-76" value="&lt;p style=&quot;margin:0px;margin-top:4px;text-align:center;&quot;&gt;&lt;b&gt;MathBlock&lt;/b&gt;&lt;/p&gt;&lt;hr size=&quot;1&quot; style=&quot;border-style:solid;&quot;&gt;&lt;p style=&quot;margin:0px;margin-left:4px;&quot;&gt;&lt;br&gt;&lt;/p&gt;&lt;hr size=&quot;1&quot; style=&quot;border-style:solid;&quot;&gt;&lt;p style=&quot;margin:0px;margin-left:4px;&quot;&gt;public String checkmath()&lt;/p&gt;&lt;p style=&quot;margin:0px;margin-left:4px;&quot;&gt;public String execute()&lt;/p&gt;" style="verticalAlign=top;align=left;overflow=fill;html=1;whiteSpace=wrap;" vertex="1" parent="1">
          <mxGeometry x="226" y="-309" width="174" height="101" as="geometry" />
        </mxCell>
        <mxCell id="ZvtriaTq_UTasGp2v6HC-77" value="&lt;p style=&quot;margin:0px;margin-top:4px;text-align:center;&quot;&gt;&lt;b&gt;Dragpanel&lt;/b&gt;&lt;/p&gt;&lt;hr size=&quot;1&quot; style=&quot;border-style:solid;&quot;&gt;&lt;p style=&quot;margin:0px;margin-left:4px;&quot;&gt;&lt;span style=&quot;background-color: transparent; color: light-dark(rgb(0, 0, 0), rgb(255, 255, 255));&quot;&gt;public String type;&lt;/span&gt;&lt;/p&gt;&lt;p style=&quot;margin:0px;margin-left:4px;&quot;&gt;private boolean snapped;&lt;/p&gt;&lt;p style=&quot;margin:0px;margin-left:4px;&quot;&gt;punlic int endifpos;&lt;/p&gt;&lt;hr size=&quot;1&quot; style=&quot;border-style:solid;&quot;&gt;&lt;p style=&quot;margin:0px;margin-left:4px;&quot;&gt;&lt;span style=&quot;background-color: transparent; color: light-dark(rgb(0, 0, 0), rgb(255, 255, 255));&quot;&gt;public int execute()&lt;/span&gt;&lt;/p&gt;&lt;p style=&quot;margin:0px;margin-left:4px;&quot;&gt;MoveBlock()&lt;/p&gt;&lt;p style=&quot;margin:0px;margin-left:4px;&quot;&gt;snapToOther(otherBlock)&lt;/p&gt;&lt;p style=&quot;margin:0px;margin-left:4px;&quot;&gt;setLocationInBounds()&lt;/p&gt;&lt;p style=&quot;margin:0px;margin-left:4px;&quot;&gt;LeftShift()&lt;/p&gt;&lt;p style=&quot;margin:0px;margin-left:4px;&quot;&gt;setAsBreakpoint()&lt;/p&gt;" style="verticalAlign=top;align=left;overflow=fill;html=1;whiteSpace=wrap;" vertex="1" parent="1">
          <mxGeometry x="110" y="-538" width="140" height="188" as="geometry" />
        </mxCell>
        <mxCell id="ZvtriaTq_UTasGp2v6HC-78" value="&lt;p style=&quot;margin:0px;margin-top:4px;text-align:center;&quot;&gt;&lt;b&gt;EndWhileBlock&lt;/b&gt;&lt;/p&gt;&lt;hr size=&quot;1&quot; style=&quot;border-style:solid;&quot;&gt;&lt;p style=&quot;margin:0px;margin-left:4px;&quot;&gt;&lt;span style=&quot;background-color: transparent; color: light-dark(rgb(0, 0, 0), rgb(255, 255, 255));&quot;&gt;public int whilepos;&lt;/span&gt;&lt;/p&gt;&lt;hr size=&quot;1&quot; style=&quot;border-style:solid;&quot;&gt;&lt;p style=&quot;margin:0px;margin-left:4px;&quot;&gt;&lt;br&gt;&lt;/p&gt;&lt;p style=&quot;margin:0px;margin-left:4px;&quot;&gt;&lt;br&gt;&lt;/p&gt;" style="verticalAlign=top;align=left;overflow=fill;html=1;whiteSpace=wrap;" vertex="1" parent="1">
          <mxGeometry x="40" y="-289" width="140" height="70" as="geometry" />
        </mxCell>
        <mxCell id="ZvtriaTq_UTasGp2v6HC-79" value="&lt;p style=&quot;margin:0px;margin-top:4px;text-align:center;&quot;&gt;&lt;b&gt;Declaration&lt;/b&gt;&lt;/p&gt;&lt;hr size=&quot;1&quot; style=&quot;border-style:solid;&quot;&gt;&lt;p style=&quot;margin:0px;margin-left:4px;&quot;&gt;&lt;br&gt;&lt;/p&gt;&lt;hr size=&quot;1&quot; style=&quot;border-style:solid;&quot;&gt;&lt;p style=&quot;margin:0px;margin-left:4px;&quot;&gt;public void addvar()&lt;/p&gt;&lt;p style=&quot;margin:0px;margin-left:4px;&quot;&gt;public void remvar()&lt;/p&gt;&lt;p style=&quot;margin:0px;margin-left:4px;&quot;&gt;public void remvar(Varpanel rempan, int intdex)&lt;/p&gt;&lt;p style=&quot;margin:0px;margin-left:4px;&quot;&gt;public void checkAllPanels()&lt;/p&gt;&lt;p style=&quot;margin:0px;margin-left:4px;&quot;&gt;startDebugMode()&lt;/p&gt;" style="verticalAlign=top;align=left;overflow=fill;html=1;whiteSpace=wrap;" vertex="1" parent="1">
          <mxGeometry x="510" y="-970" width="160" height="160" as="geometry" />
        </mxCell>
        <mxCell id="ZvtriaTq_UTasGp2v6HC-80" value="&lt;p style=&quot;margin:0px;margin-top:4px;text-align:center;&quot;&gt;&lt;b&gt;VarPanel&lt;/b&gt;&lt;/p&gt;&lt;hr size=&quot;1&quot; style=&quot;border-style:solid;&quot;&gt;&lt;p style=&quot;margin:0px;margin-left:4px;&quot;&gt;&lt;span style=&quot;background-color: transparent; color: light-dark(rgb(0, 0, 0), rgb(255, 255, 255));&quot;&gt;private int index;&lt;/span&gt;&lt;/p&gt;&lt;hr size=&quot;1&quot; style=&quot;border-style:solid;&quot;&gt;&lt;p style=&quot;margin:0px;margin-left:4px;&quot;&gt;public void rempanel()&lt;/p&gt;&lt;p style=&quot;margin:0px;margin-left:4px;&quot;&gt;public String getEntry()&lt;/p&gt;&lt;p style=&quot;margin:0px;margin-left:4px;&quot;&gt;&lt;br&gt;&lt;/p&gt;" style="verticalAlign=top;align=left;overflow=fill;html=1;whiteSpace=wrap;" vertex="1" parent="1">
          <mxGeometry x="730" y="-440" width="140" height="90" as="geometry" />
        </mxCell>
        <mxCell id="ZvtriaTq_UTasGp2v6HC-81" value="&lt;p style=&quot;margin:0px;margin-top:4px;text-align:center;&quot;&gt;&lt;b&gt;VarEntry&lt;/b&gt;&lt;/p&gt;&lt;hr size=&quot;1&quot; style=&quot;border-style:solid;&quot;&gt;&lt;p style=&quot;margin:0px;margin-left:4px;&quot;&gt;&lt;span style=&quot;background-color: transparent; color: light-dark(rgb(0, 0, 0), rgb(255, 255, 255));&quot;&gt;public Varpanel panel;&lt;/span&gt;&lt;/p&gt;&lt;p style=&quot;margin:0px;margin-left:4px;&quot;&gt;&lt;span style=&quot;background-color: transparent; color: light-dark(rgb(0, 0, 0), rgb(255, 255, 255));&quot;&gt;public String name;&lt;/span&gt;&lt;/p&gt;&lt;p style=&quot;margin:0px;margin-left:4px;&quot;&gt;&lt;span style=&quot;background-color: transparent; color: light-dark(rgb(0, 0, 0), rgb(255, 255, 255));&quot;&gt;public int value;&lt;/span&gt;&lt;/p&gt;&lt;p style=&quot;margin:0px;margin-left:4px;&quot;&gt;&lt;span style=&quot;background-color: transparent; color: light-dark(rgb(0, 0, 0), rgb(255, 255, 255));&quot;&gt;public int index;&lt;/span&gt;&lt;/p&gt;&lt;hr size=&quot;1&quot; style=&quot;border-style:solid;&quot;&gt;&lt;p style=&quot;margin:0px;margin-left:4px;&quot;&gt;&lt;br&gt;&lt;/p&gt;&lt;p style=&quot;margin:0px;margin-left:4px;&quot;&gt;&lt;br&gt;&lt;/p&gt;" style="verticalAlign=top;align=left;overflow=fill;html=1;whiteSpace=wrap;" vertex="1" parent="1">
          <mxGeometry x="980" y="-454" width="140" height="100" as="geometry" />
        </mxCell>
        <mxCell id="ZvtriaTq_UTasGp2v6HC-82" value="&lt;p style=&quot;margin:0px;margin-top:4px;text-align:center;&quot;&gt;&lt;b&gt;VarList&lt;/b&gt;&lt;/p&gt;&lt;hr size=&quot;1&quot; style=&quot;border-style:solid;&quot;&gt;&lt;p style=&quot;margin:0px;margin-left:4px;&quot;&gt;&lt;br&gt;&lt;/p&gt;&lt;hr size=&quot;1&quot; style=&quot;border-style:solid;&quot;&gt;&lt;p style=&quot;margin:0px;margin-left:4px;&quot;&gt;public static void setEntry(int index, VarEntry entry)&lt;/p&gt;&lt;p style=&quot;margin:0px;margin-left:4px;&quot;&gt;public static void removeEntry(int index)&lt;/p&gt;&lt;p style=&quot;margin:0px;margin-left:4px;&quot;&gt;public static void printAll()&lt;/p&gt;&lt;p style=&quot;margin:0px;margin-left:4px;&quot;&gt;&lt;br&gt;&lt;/p&gt;" style="verticalAlign=top;align=left;overflow=fill;html=1;whiteSpace=wrap;" vertex="1" parent="1">
          <mxGeometry x="1280" y="-474" width="160" height="140" as="geometry" />
        </mxCell>
        <mxCell id="ZvtriaTq_UTasGp2v6HC-83" value="&lt;p style=&quot;margin:0px;margin-top:4px;text-align:center;&quot;&gt;&lt;b&gt;Run&lt;/b&gt;&lt;/p&gt;&lt;hr size=&quot;1&quot; style=&quot;border-style:solid;&quot;&gt;&lt;p style=&quot;margin:0px;margin-left:4px;&quot;&gt;&lt;br&gt;&lt;/p&gt;&lt;hr size=&quot;1&quot; style=&quot;border-style:solid;&quot;&gt;&lt;p style=&quot;margin:0px;margin-left:4px;&quot;&gt;public void actionPerformed(ActionEvent e)&lt;/p&gt;&lt;p style=&quot;margin:0px;margin-left:4px;&quot;&gt;compileCheck()&lt;/p&gt;&lt;p style=&quot;margin:0px;margin-left:4px;&quot;&gt;runUntilBreakpoint()&lt;/p&gt;&lt;p style=&quot;margin:0px;margin-left:4px;&quot;&gt;&lt;br&gt;&lt;/p&gt;&lt;p style=&quot;margin:0px;margin-left:4px;&quot;&gt;&lt;br&gt;&lt;/p&gt;" style="verticalAlign=top;align=left;overflow=fill;html=1;whiteSpace=wrap;" vertex="1" parent="1">
          <mxGeometry x="995" y="-1240" width="190" height="120" as="geometry" />
        </mxCell>
        <mxCell id="ZvtriaTq_UTasGp2v6HC-84" value="&lt;p style=&quot;margin:0px;margin-top:4px;text-align:center;&quot;&gt;&lt;b&gt;Output&lt;/b&gt;&lt;/p&gt;&lt;hr size=&quot;1&quot; style=&quot;border-style:solid;&quot;&gt;&lt;p style=&quot;margin:0px;margin-left:4px;&quot;&gt;&lt;br&gt;&lt;/p&gt;&lt;hr size=&quot;1&quot; style=&quot;border-style:solid;&quot;&gt;&lt;p style=&quot;margin:0px;margin-left:4px;&quot;&gt;public void create_out_elements()&lt;/p&gt;&lt;p style=&quot;margin:0px;margin-left:4px;&quot;&gt;&lt;br&gt;&lt;/p&gt;" style="verticalAlign=top;align=left;overflow=fill;html=1;whiteSpace=wrap;" vertex="1" parent="1">
          <mxGeometry x="310" y="-900" width="140" height="90" as="geometry" />
        </mxCell>
        <mxCell id="ZvtriaTq_UTasGp2v6HC-85" value="&lt;p style=&quot;margin:0px;margin-top:4px;text-align:center;&quot;&gt;&lt;b&gt;CodeList&lt;/b&gt;&lt;/p&gt;&lt;hr size=&quot;1&quot; style=&quot;border-style:solid;&quot;&gt;&lt;p style=&quot;margin:0px;margin-left:4px;&quot;&gt;&lt;span style=&quot;background-color: transparent; color: light-dark(rgb(0, 0, 0), rgb(255, 255, 255));&quot;&gt;public static int numstart;&lt;/span&gt;&lt;/p&gt;&lt;p style=&quot;margin:0px;margin-left:4px;&quot;&gt;&lt;span style=&quot;background-color: transparent; color: light-dark(rgb(0, 0, 0), rgb(255, 255, 255));&quot;&gt;public static int numend;&lt;/span&gt;&lt;/p&gt;&lt;p style=&quot;margin:0px;margin-left:4px;&quot;&gt;&lt;span style=&quot;background-color: transparent; color: light-dark(rgb(0, 0, 0), rgb(255, 255, 255));&quot;&gt;public statin int ProgCounter;&lt;/span&gt;&lt;/p&gt;&lt;p style=&quot;margin:0px;margin-left:4px;&quot;&gt;&lt;span style=&quot;background-color: transparent; color: light-dark(rgb(0, 0, 0), rgb(255, 255, 255));&quot;&gt;public static int ProgMax;&lt;/span&gt;&lt;/p&gt;&lt;hr size=&quot;1&quot; style=&quot;border-style:solid;&quot;&gt;&lt;p style=&quot;margin:0px;margin-left:4px;&quot;&gt;public static void addStartBlock(Dragpanel startBlock)&lt;/p&gt;&lt;p style=&quot;margin:0px;margin-left:4px;&quot;&gt;&lt;span style=&quot;white-space-collapse: break-spaces; background-color: oklab(0.678888 0.00325716 -0.011175 / 0.121569);&quot;&gt;&lt;font face=&quot;Helvetica&quot; style=&quot;font-size: 12px; color: light-dark(rgb(0, 0, 0), rgb(255, 255, 255));&quot;&gt;public static void insertRightOf(Dragpanel target, Dragpanel newBlock)&lt;br&gt;public static void removeBlock(Dragpanel block)&lt;br&gt;public static void printList()&lt;br&gt;public static void clear()&lt;br&gt;public static void compile()&lt;br&gt;public static void run(int progcounter)&lt;br&gt;public static void resetborder(int progcounter)&lt;/font&gt;&lt;/span&gt;&lt;/p&gt;&lt;p style=&quot;margin:0px;margin-left:4px;&quot;&gt;&lt;span style=&quot;white-space-collapse: break-spaces; background-color: oklab(0.678888 0.00325716 -0.011175 / 0.121569);&quot;&gt;&lt;font face=&quot;Helvetica&quot; style=&quot;font-size: 12px; color: light-dark(rgb(0, 0, 0), rgb(255, 255, 255));&quot;&gt;&lt;br&gt;&lt;/font&gt;&lt;/span&gt;&lt;/p&gt;&lt;p style=&quot;margin:0px;margin-left:4px;&quot;&gt;&lt;span style=&quot;white-space-collapse: break-spaces; background-color: oklab(0.678888 0.00325716 -0.011175 / 0.121569);&quot;&gt;&lt;font face=&quot;Helvetica&quot; style=&quot;font-size: 12px; color: light-dark(rgb(0, 0, 0), rgb(255, 255, 255));&quot;&gt;public static void checkCodeBounds()&lt;/font&gt;&lt;/span&gt;&lt;/p&gt;&lt;p style=&quot;margin:0px;margin-left:4px;&quot;&gt;&lt;span style=&quot;white-space-collapse: break-spaces; background-color: oklab(0.678888 0.00325716 -0.011175 / 0.121569);&quot;&gt;&lt;font face=&quot;Helvetica&quot; style=&quot;font-size: 12px; color: light-dark(rgb(0, 0, 0), rgb(255, 255, 255));&quot;&gt;public static void exchangeifpos()&lt;/font&gt;&lt;/span&gt;&lt;/p&gt;&lt;p style=&quot;margin:0px;margin-left:4px;&quot;&gt;&lt;span style=&quot;white-space-collapse: break-spaces; background-color: oklab(0.678888 0.00325716 -0.011175 / 0.121569);&quot;&gt;&lt;font face=&quot;Helvetica&quot; style=&quot;font-size: 12px; color: light-dark(rgb(0, 0, 0), rgb(255, 255, 255));&quot;&gt;public static void ecxhangewhilepos()&lt;/font&gt;&lt;/span&gt;&lt;/p&gt;" style="verticalAlign=top;align=left;overflow=fill;html=1;whiteSpace=wrap;" vertex="1" parent="1">
          <mxGeometry x="880" y="-340" width="240" height="340" as="geometry" />
        </mxCell>
        <mxCell id="ZvtriaTq_UTasGp2v6HC-86" value="&lt;p style=&quot;margin:0px;margin-top:4px;text-align:center;&quot;&gt;&lt;b&gt;Compile&lt;/b&gt;&lt;/p&gt;&lt;hr size=&quot;1&quot; style=&quot;border-style:solid;&quot;&gt;&lt;p style=&quot;margin:0px;margin-left:4px;&quot;&gt;&lt;br&gt;&lt;/p&gt;&lt;hr size=&quot;1&quot; style=&quot;border-style:solid;&quot;&gt;&lt;p style=&quot;margin:0px;margin-left:4px;&quot;&gt;public void actionPerformed(ActionEvent e)&lt;/p&gt;&lt;p style=&quot;margin:0px;margin-left:4px;&quot;&gt;&lt;br&gt;&lt;/p&gt;" style="verticalAlign=top;align=left;overflow=fill;html=1;whiteSpace=wrap;" vertex="1" parent="1">
          <mxGeometry x="980" y="-790" width="180" height="110" as="geometry" />
        </mxCell>
        <mxCell id="ZvtriaTq_UTasGp2v6HC-87" value="&lt;p style=&quot;margin:0px;margin-top:4px;text-align:center;&quot;&gt;&lt;b&gt;CallFuncBlock&lt;/b&gt;&lt;/p&gt;&lt;hr size=&quot;1&quot; style=&quot;border-style:solid;&quot;&gt;&lt;p style=&quot;margin: 0px 0px 0px 4px;&quot;&gt;&lt;br&gt;&lt;/p&gt;&lt;hr size=&quot;1&quot; style=&quot;border-style:solid;&quot;&gt;&lt;p style=&quot;margin:0px;margin-left:4px;&quot;&gt;&lt;span style=&quot;background-color: transparent; color: light-dark(rgb(0, 0, 0), rgb(255, 255, 255));&quot;&gt;public String checkfunc()&lt;/span&gt;&lt;/p&gt;&lt;p style=&quot;margin:0px;margin-left:4px;&quot;&gt;public int execute()&lt;/p&gt;&lt;p style=&quot;margin:0px;margin-left:4px;&quot;&gt;&lt;br&gt;&lt;/p&gt;" style="verticalAlign=top;align=left;overflow=fill;html=1;whiteSpace=wrap;" vertex="1" parent="1">
          <mxGeometry x="-280" y="-454" width="160" height="104" as="geometry" />
        </mxCell>
        <mxCell id="ZvtriaTq_UTasGp2v6HC-88" value="&lt;p style=&quot;margin:0px;margin-top:4px;text-align:center;&quot;&gt;&lt;b&gt;ProgressBar&lt;/b&gt;&lt;/p&gt;&lt;hr size=&quot;1&quot; style=&quot;border-style:solid;&quot;&gt;&lt;p style=&quot;margin: 0px 0px 0px 4px;&quot;&gt;&lt;br&gt;&lt;/p&gt;&lt;hr size=&quot;1&quot; style=&quot;border-style:solid;&quot;&gt;&lt;p style=&quot;margin:0px;margin-left:4px;&quot;&gt;&lt;span style=&quot;background-color: transparent; color: light-dark(rgb(0, 0, 0), rgb(255, 255, 255));&quot;&gt;public void simulate_work()&lt;/span&gt;&lt;/p&gt;&lt;p style=&quot;margin:0px;margin-left:4px;&quot;&gt;&lt;br&gt;&lt;/p&gt;" style="verticalAlign=top;align=left;overflow=fill;html=1;whiteSpace=wrap;" vertex="1" parent="1">
          <mxGeometry x="610" y="-1210" width="160" height="90" as="geometry" />
        </mxCell>
        <mxCell id="ZvtriaTq_UTasGp2v6HC-89" value="" style="endArrow=diamondThin;endFill=1;endSize=24;html=1;rounded=0;exitX=0.5;exitY=1;exitDx=0;exitDy=0;labelBackgroundColor=none;fontColor=default;entryX=0.75;entryY=0;entryDx=0;entryDy=0;" edge="1" parent="1" source="ZvtriaTq_UTasGp2v6HC-88" target="ZvtriaTq_UTasGp2v6HC-79">
          <mxGeometry width="160" relative="1" as="geometry">
            <mxPoint x="640" y="-1050" as="sourcePoint" />
            <mxPoint x="315" y="-880" as="targetPoint" />
          </mxGeometry>
        </mxCell>
        <mxCell id="ZvtriaTq_UTasGp2v6HC-90" value="&lt;p style=&quot;margin:0px;margin-top:4px;text-align:center;&quot;&gt;&lt;b&gt;GhostBlock&lt;/b&gt;&lt;/p&gt;&lt;hr size=&quot;1&quot; style=&quot;border-style:solid;&quot;&gt;&lt;p style=&quot;margin:0px;margin-left:4px;&quot;&gt;&lt;br&gt;&lt;/p&gt;&lt;hr size=&quot;1&quot; style=&quot;border-style:solid;&quot;&gt;&lt;p style=&quot;margin:0px;margin-left:4px;&quot;&gt;&lt;span style=&quot;background-color: transparent; color: light-dark(rgb(0, 0, 0), rgb(255, 255, 255));&quot;&gt;&lt;br&gt;&lt;/span&gt;&lt;/p&gt;&lt;p style=&quot;margin:0px;margin-left:4px;&quot;&gt;&lt;br&gt;&lt;/p&gt;&lt;p style=&quot;margin:0px;margin-left:4px;&quot;&gt;&lt;br&gt;&lt;/p&gt;" style="verticalAlign=top;align=left;overflow=fill;html=1;whiteSpace=wrap;" vertex="1" parent="1">
          <mxGeometry x="-260" y="-740" width="140" height="90" as="geometry" />
        </mxCell>
        <mxCell id="ZvtriaTq_UTasGp2v6HC-91" value="" style="endArrow=block;endSize=16;endFill=0;html=1;rounded=0;exitX=1;exitY=0.5;exitDx=0;exitDy=0;entryX=0;entryY=0.5;entryDx=0;entryDy=0;labelBackgroundColor=none;fontColor=default;" edge="1" parent="1" source="ZvtriaTq_UTasGp2v6HC-90" target="ZvtriaTq_UTasGp2v6HC-71">
          <mxGeometry width="160" relative="1" as="geometry">
            <mxPoint x="50" y="-650" as="sourcePoint" />
            <mxPoint x="175" y="-837" as="targetPoint" />
          </mxGeometry>
        </mxCell>
        <mxCell id="ZvtriaTq_UTasGp2v6HC-92" value="&lt;p style=&quot;margin:0px;margin-top:4px;text-align:center;&quot;&gt;&lt;b&gt;Gui&lt;/b&gt;&lt;/p&gt;&lt;hr size=&quot;1&quot; style=&quot;border-style:solid;&quot;&gt;&lt;p style=&quot;margin:0px;margin-left:4px;&quot;&gt;&lt;br&gt;&lt;/p&gt;&lt;hr size=&quot;1&quot; style=&quot;border-style:solid;&quot;&gt;&lt;p style=&quot;margin:0px;margin-left:4px;&quot;&gt;&lt;br&gt;&lt;/p&gt;&lt;p style=&quot;margin:0px;margin-left:4px;&quot;&gt;&lt;br&gt;&lt;/p&gt;" style="verticalAlign=top;align=left;overflow=fill;html=1;whiteSpace=wrap;" vertex="1" parent="1">
          <mxGeometry x="100" y="-900" width="140" height="90" as="geometry" />
        </mxCell>
        <mxCell id="ZvtriaTq_UTasGp2v6HC-93" value="&lt;p style=&quot;margin:0px;margin-top:4px;text-align:center;&quot;&gt;&lt;b&gt;Save Screen&lt;/b&gt;&lt;/p&gt;&lt;hr size=&quot;1&quot; style=&quot;border-style:solid;&quot;&gt;&lt;p style=&quot;margin:0px;margin-left:4px;&quot;&gt;&lt;br&gt;&lt;/p&gt;&lt;hr size=&quot;1&quot; style=&quot;border-style:solid;&quot;&gt;&lt;p style=&quot;margin:0px;margin-left:4px;&quot;&gt;openSaveScreen()&lt;/p&gt;&lt;p style=&quot;margin:0px;margin-left:4px;&quot;&gt;closeSaveScreen()&lt;/p&gt;&lt;p style=&quot;margin:0px;margin-left:4px;&quot;&gt;&lt;br&gt;&lt;/p&gt;" style="verticalAlign=top;align=left;overflow=fill;html=1;whiteSpace=wrap;" vertex="1" parent="1">
          <mxGeometry x="-320" y="-960" width="140" height="100" as="geometry" />
        </mxCell>
        <mxCell id="ZvtriaTq_UTasGp2v6HC-94" value="" style="endArrow=block;endSize=16;endFill=0;html=1;rounded=0;exitX=1;exitY=0.5;exitDx=0;exitDy=0;entryX=0;entryY=0.25;entryDx=0;entryDy=0;labelBackgroundColor=none;fontColor=default;" edge="1" parent="1" source="ZvtriaTq_UTasGp2v6HC-93" target="ZvtriaTq_UTasGp2v6HC-72">
          <mxGeometry width="160" relative="1" as="geometry">
            <mxPoint x="-10" y="-950" as="sourcePoint" />
            <mxPoint x="400" y="-1087" as="targetPoint" />
          </mxGeometry>
        </mxCell>
        <mxCell id="ZvtriaTq_UTasGp2v6HC-95" value="&lt;p style=&quot;margin:0px;margin-top:4px;text-align:center;&quot;&gt;&lt;b&gt;Undo&lt;/b&gt;&lt;/p&gt;&lt;hr size=&quot;1&quot; style=&quot;border-style:solid;&quot;&gt;&lt;p style=&quot;margin:0px;margin-left:4px;&quot;&gt;&lt;br&gt;&lt;/p&gt;&lt;hr size=&quot;1&quot; style=&quot;border-style:solid;&quot;&gt;&lt;p style=&quot;margin:0px;margin-left:4px;&quot;&gt;&lt;br&gt;&lt;/p&gt;&lt;p style=&quot;margin:0px;margin-left:4px;&quot;&gt;&lt;br&gt;&lt;/p&gt;" style="verticalAlign=top;align=left;overflow=fill;html=1;whiteSpace=wrap;" vertex="1" parent="1">
          <mxGeometry x="1020" y="-990" width="120" height="90" as="geometry" />
        </mxCell>
        <mxCell id="ZvtriaTq_UTasGp2v6HC-96" value="&lt;p style=&quot;margin:0px;margin-top:4px;text-align:center;&quot;&gt;&lt;b&gt;Redo&lt;/b&gt;&lt;/p&gt;&lt;hr size=&quot;1&quot; style=&quot;border-style:solid;&quot;&gt;&lt;p style=&quot;margin:0px;margin-left:4px;&quot;&gt;&lt;br&gt;&lt;/p&gt;&lt;hr size=&quot;1&quot; style=&quot;border-style:solid;&quot;&gt;&lt;p style=&quot;margin:0px;margin-left:4px;&quot;&gt;&lt;br&gt;&lt;/p&gt;&lt;p style=&quot;margin:0px;margin-left:4px;&quot;&gt;&lt;br&gt;&lt;/p&gt;" style="verticalAlign=top;align=left;overflow=fill;html=1;whiteSpace=wrap;" vertex="1" parent="1">
          <mxGeometry x="1020" y="-889" width="120" height="89" as="geometry" />
        </mxCell>
        <mxCell id="ZvtriaTq_UTasGp2v6HC-97" value="&lt;p style=&quot;margin:0px;margin-top:4px;text-align:center;&quot;&gt;&lt;b&gt;EndFuncBlock&lt;/b&gt;&lt;/p&gt;&lt;hr size=&quot;1&quot; style=&quot;border-style:solid;&quot;&gt;&lt;p style=&quot;margin:0px;margin-left:4px;&quot;&gt;&lt;br&gt;&lt;/p&gt;&lt;hr size=&quot;1&quot; style=&quot;border-style:solid;&quot;&gt;&lt;p style=&quot;margin:0px;margin-left:4px;&quot;&gt;&lt;br&gt;&lt;/p&gt;" style="verticalAlign=top;align=left;overflow=fill;html=1;whiteSpace=wrap;" vertex="1" parent="1">
          <mxGeometry x="-410" y="-660" width="120" height="90" as="geometry" />
        </mxCell>
        <mxCell id="ZvtriaTq_UTasGp2v6HC-98" value="&lt;p style=&quot;margin:0px;margin-top:4px;text-align:center;&quot;&gt;&lt;b&gt;StartFuncBlock&lt;/b&gt;&lt;/p&gt;&lt;hr size=&quot;1&quot; style=&quot;border-style:solid;&quot;&gt;&lt;p style=&quot;margin:0px;margin-left:4px;&quot;&gt;&lt;br&gt;&lt;/p&gt;&lt;hr size=&quot;1&quot; style=&quot;border-style:solid;&quot;&gt;&lt;p style=&quot;margin:0px;margin-left:4px;&quot;&gt;&lt;br&gt;&lt;/p&gt;&lt;p style=&quot;margin:0px;margin-left:4px;&quot;&gt;&lt;br&gt;&lt;/p&gt;" style="verticalAlign=top;align=left;overflow=fill;html=1;whiteSpace=wrap;" vertex="1" parent="1">
          <mxGeometry x="-360" y="-551" width="120" height="90" as="geometry" />
        </mxCell>
        <mxCell id="ZvtriaTq_UTasGp2v6HC-99" value="&lt;p style=&quot;margin:0px;margin-top:4px;text-align:center;&quot;&gt;&lt;b&gt;NamePanel&lt;/b&gt;&lt;/p&gt;&lt;hr size=&quot;1&quot; style=&quot;border-style:solid;&quot;&gt;&lt;p style=&quot;margin:0px;margin-left:4px;&quot;&gt;&lt;br&gt;&lt;/p&gt;&lt;hr size=&quot;1&quot; style=&quot;border-style:solid;&quot;&gt;&lt;p style=&quot;margin:0px;margin-left:4px;&quot;&gt;openNamePanel()&lt;/p&gt;&lt;p style=&quot;margin:0px;margin-left:4px;&quot;&gt;checkName()&lt;/p&gt;&lt;p style=&quot;margin:0px;margin-left:4px;&quot;&gt;&lt;br&gt;&lt;/p&gt;" style="verticalAlign=top;align=left;overflow=fill;html=1;whiteSpace=wrap;" vertex="1" parent="1">
          <mxGeometry x="-220" y="-1090" width="140" height="90" as="geometry" />
        </mxCell>
        <mxCell id="ZvtriaTq_UTasGp2v6HC-100" value="" style="endArrow=block;endSize=16;endFill=0;html=1;rounded=0;exitX=1;exitY=0.75;exitDx=0;exitDy=0;entryX=0;entryY=0;entryDx=0;entryDy=0;labelBackgroundColor=none;fontColor=default;" edge="1" parent="1" source="ZvtriaTq_UTasGp2v6HC-99" target="ZvtriaTq_UTasGp2v6HC-72">
          <mxGeometry width="160" relative="1" as="geometry">
            <mxPoint x="60" y="-1110" as="sourcePoint" />
            <mxPoint x="560" y="-1230" as="targetPoint" />
          </mxGeometry>
        </mxCell>
        <mxCell id="ZvtriaTq_UTasGp2v6HC-104" value="&lt;hr size=&quot;1&quot; style=&quot;forced-color-adjust: none; border-style: solid;&quot;&gt;&lt;div style=&quot;forced-color-adjust: none; height: 2px;&quot;&gt;&lt;br style=&quot;forced-color-adjust: none;&quot;&gt;&lt;/div&gt;&lt;div style=&quot;forced-color-adjust: none; height: 2px;&quot;&gt;&lt;br style=&quot;forced-color-adjust: none;&quot;&gt;&lt;/div&gt;&lt;div style=&quot;forced-color-adjust: none; height: 2px;&quot;&gt;&lt;br style=&quot;forced-color-adjust: none;&quot;&gt;&lt;/div&gt;&lt;div style=&quot;forced-color-adjust: none; height: 2px;&quot;&gt;&lt;br style=&quot;forced-color-adjust: none;&quot;&gt;&lt;/div&gt;&lt;div style=&quot;forced-color-adjust: none; height: 2px;&quot;&gt;&lt;br style=&quot;forced-color-adjust: none;&quot;&gt;&lt;/div&gt;&lt;div style=&quot;forced-color-adjust: none; height: 2px;&quot;&gt;&lt;br style=&quot;forced-color-adjust: none;&quot;&gt;&lt;/div&gt;&lt;div style=&quot;forced-color-adjust: none; height: 2px;&quot;&gt;&lt;br style=&quot;forced-color-adjust: none;&quot;&gt;&lt;/div&gt;&lt;div style=&quot;forced-color-adjust: none; height: 2px;&quot;&gt;createStartFunc(),&amp;nbsp;&lt;span style=&quot;background-color: transparent; color: light-dark(rgb(0, 0, 0), rgb(255, 255, 255));&quot;&gt;createCallFunc(),&lt;/span&gt;&lt;/div&gt;&lt;div style=&quot;forced-color-adjust: none; height: 2px;&quot;&gt;&lt;br style=&quot;forced-color-adjust: none;&quot;&gt;&lt;/div&gt;&lt;div style=&quot;forced-color-adjust: none; height: 2px;&quot;&gt;&lt;br style=&quot;forced-color-adjust: none;&quot;&gt;&lt;/div&gt;&lt;div style=&quot;forced-color-adjust: none; height: 2px;&quot;&gt;&lt;br style=&quot;forced-color-adjust: none;&quot;&gt;&lt;/div&gt;&lt;div style=&quot;forced-color-adjust: none; height: 2px;&quot;&gt;&lt;br style=&quot;forced-color-adjust: none;&quot;&gt;&lt;/div&gt;&lt;div style=&quot;forced-color-adjust: none; height: 2px;&quot;&gt;&lt;br style=&quot;forced-color-adjust: none;&quot;&gt;&lt;/div&gt;&lt;div style=&quot;forced-color-adjust: none; height: 2px;&quot;&gt;addStartBlock(),addEndBlock()&lt;br style=&quot;forced-color-adjust: none;&quot;&gt;addMathBlock(),addIfBlock()&lt;br style=&quot;forced-color-adjust: none;&quot;&gt;addEndIfBlock(),addWhileBlock()&lt;br style=&quot;forced-color-adjust: none;&quot;&gt;addEndWhileBlock(), clearCanvas(), constructSnapshot(), checkExistance(), createFuncTriplet(),&lt;span style=&quot;forced-color-adjust: none; background-color: transparent; color: light-dark(rgb(0, 0, 0), rgb(255, 255, 255));&quot;&gt;createEndFunc(),&lt;/span&gt;&lt;/div&gt;&lt;div style=&quot;forced-color-adjust: none; height: 2px;&quot;&gt;&lt;span style=&quot;forced-color-adjust: none; background-color: transparent; color: light-dark(rgb(0, 0, 0), rgb(255, 255, 255));&quot;&gt;&lt;br&gt;&lt;/span&gt;&lt;/div&gt;&lt;p style=&quot;forced-color-adjust: none; margin: 0px 0px 0px 4px;&quot;&gt;&lt;br style=&quot;forced-color-adjust: none; color: rgb(0, 0, 0); font-family: Helvetica; font-size: 12px; font-style: normal; font-variant-ligatures: normal; font-variant-caps: normal; font-weight: 400; letter-spacing: normal; orphans: 2; text-align: left; text-indent: 0px; text-transform: none; widows: 2; word-spacing: 0px; -webkit-text-stroke-width: 0px; white-space: normal; background-color: rgb(236, 236, 236); text-decoration-thickness: initial; text-decoration-style: initial; text-decoration-color: initial;&quot;&gt;&lt;br&gt;&lt;br&gt;&lt;/p&gt;" style="text;whiteSpace=wrap;html=1;" vertex="1" parent="1">
          <mxGeometry x="400" y="-750" width="210" height="160" as="geometry" />
        </mxCell>
        <mxCell id="ZvtriaTq_UTasGp2v6HC-108" value="&lt;p style=&quot;margin:0px;margin-top:4px;text-align:center;&quot;&gt;FuncList&lt;/p&gt;&lt;hr size=&quot;1&quot; style=&quot;border-style:solid;&quot;&gt;&lt;p style=&quot;margin: 0px 0px 0px 4px;&quot;&gt;&lt;span style=&quot;text-align: center; text-wrap-mode: nowrap;&quot;&gt;public&amp;nbsp; static int ProgCounter;&lt;/span&gt;&lt;/p&gt;&lt;hr size=&quot;1&quot; style=&quot;border-style:solid;&quot;&gt;&lt;p style=&quot;margin:0px;margin-left:4px;&quot;&gt;&lt;span style=&quot;text-align: center; text-wrap-mode: nowrap;&quot;&gt;public static void compile()&lt;/span&gt;&lt;/p&gt;&lt;p style=&quot;margin:0px;margin-left:4px;&quot;&gt;&lt;span style=&quot;text-align: center; text-wrap-mode: nowrap;&quot;&gt;public static void run(ProgCounter)&lt;/span&gt;&lt;span style=&quot;text-align: center; text-wrap-mode: nowrap;&quot;&gt;&lt;/span&gt;&lt;/p&gt;" style="verticalAlign=top;align=left;overflow=fill;html=1;whiteSpace=wrap;" vertex="1" parent="1">
          <mxGeometry x="-270" y="170" width="190" height="120" as="geometry" />
        </mxCell>
      </root>
    </mxGraphModel>
  </diagram>
  <diagram name="Σελίδα-2" id="_sXUhy3UBE1X9_wyHWP2">
    <mxGraphModel dx="1044" dy="604" grid="1" gridSize="10" guides="1" tooltips="1" connect="1" arrows="1" fold="1" page="1" pageScale="1" pageWidth="827" pageHeight="1169" math="0" shadow="0">
      <root>
        <mxCell id="0" />
        <mxCell id="1" parent="0" />
      </root>
    </mxGraphModel>
  </diagram>
</mxfile>
